<svg width="129" height="148" xmlns="http://www.w3.org/2000/svg" xmlns:xlink="http://www.w3.org/1999/xlink" xmlns:svgjs="http://svgjs.com/svgjs" viewBox="1386 9624 129 148"><svg width="56" height="130" xmlns="http://www.w3.org/2000/svg" xmlns:xlink="http://www.w3.org/1999/xlink" xmlns:svgjs="http://svgjs.com/svgjs" viewBox="0.624 0 54.753 130" fill="#fff" x="1386" y="9624"><svg xmlns="http://www.w3.org/2000/svg" xmlns:xlink="http://www.w3.org/1999/xlink" width="56" height="130" viewBox="0.926 0.76 54.145 128.557"><path paint-order="stroke fill markers" fill-rule="evenodd" d="M.926.76c.69.275 1.09.827 1.546 1.324 4.704 5.13 9.424 10.244 14.115 15.383 6.09 6.67 12.159 13.36 18.235 20.042 4.089 4.498 8.182 8.991 12.26 13.499 2.515 2.78 5.004 5.582 7.508 8.374.294.327.487.673.48 1.14-.064 4.54-1.768 7.135-6.618 9.188-1.66.702-3.451.926-5.22 1.197-2.948.449-4.2 1.579-4.698 4.535-.334 1.984-.443 4.004-.719 6-.417 3.02-1.623 5.783-2.917 8.51-.756 1.591-1.518 3.182-2.02 4.876-1.03 3.475-.33 6.563 2.133 9.236 1.261 1.369 2.769 2.438 4.286 3.492 1.332.927 2.632 1.898 3.707 3.121 1.057 1.203 1.614 2.564 1.765 4.222.327 3.595-1.342 6.091-4.001 8.158-3.38 2.629-7.256 4.206-11.348 5.305-1.315.354-2.656.611-3.986.907-.383.086-.782.106-.899-.377-.654-2.692-2.35-4.838-3.76-7.124-1.893-3.067-3.234-6.329-3.645-9.914-.505-4.415.261-8.53 3.044-12.156 2.076-2.703 4.25-5.33 6.26-8.086 3.212-4.409 5.268-9.228 5.817-14.708.31-3.09 1.028-6.12 3.078-8.63.36-.44.729-.872 1.1-1.302.862-.997.946-2.039.339-3.224-2.204-4.298-4.597-8.493-6.937-12.717-3.085-5.566-6.185-11.122-9.277-16.684-.04-.072-.058-.155.037-.341.179.246.37.486.536.742 4.643 7.147 9.28 14.298 13.928 21.442 1.549 2.381 3.068 4.785 4.782 7.053 1.39 1.84 3.222 2.644 5.528 2.115 1.22-.28 2.421-.617 3.474-1.346 1.51-1.046 1.747-2.35.606-3.768-4.006-4.98-8.013-9.96-12.046-14.918a7597.724 7597.724 0 0 0-16.441-20.129C14.568 17.397 8.163 9.61 1.766 1.813c-.285-.346-.56-.702-.84-1.053zM24.04 107.222c-.344-.006-.68.036-.992.192-.72.362-.836 1.002-.179 1.448.808.547.81 1.123.327 1.866-.38.583-.546 1.232.005 1.793.568.579 1.269.705 2.031.362 1.138-.515 1.888-2.033 1.61-3.273-.325-1.445-1.436-2.394-2.802-2.388z"/></svg></svg><svg width="46" height="42" xmlns="http://www.w3.org/2000/svg" xmlns:xlink="http://www.w3.org/1999/xlink" xmlns:svgjs="http://svgjs.com/svgjs" viewBox="0 0.487 46 41.027" fill="#fff" x="1469" y="9689"><svg xmlns="http://www.w3.org/2000/svg" xmlns:xlink="http://www.w3.org/1999/xlink" width="46" height="42" viewBox="0.19 0.326 45.745 40.799"><path paint-order="stroke fill markers" fill-rule="evenodd" d="M45.931 30.284c.06 2.86-.641 6.503-2.432 9.898-.192.365-.328.986-.745.941-.504-.054-.358-.706-.392-1.081-.387-4.315-2.769-7.351-6.197-9.7-3.513-2.407-7.423-4.04-11.32-5.686-4.681-1.976-9.45-3.754-13.874-6.294-2.748-1.578-5.323-3.372-7.378-5.83C1.268 9.753.265 6.51.196 2.935A31.281 31.281 0 0 1 .222.89C.247.353.49.126.966.538c4.237 3.666 9.543 4.265 14.747 5.133 4.924.82 9.908 1.358 14.63 3.107 5.487 2.034 10.078 5.21 12.985 10.442 1.743 3.137 2.634 6.51 2.603 11.064z"/></svg></svg><svg width="72" height="41" xmlns="http://www.w3.org/2000/svg" xmlns:xlink="http://www.w3.org/1999/xlink" xmlns:svgjs="http://svgjs.com/svgjs" viewBox="0.116 0 71.767 41" fill="#fff" x="1435" y="9657"><svg xmlns="http://www.w3.org/2000/svg" xmlns:xlink="http://www.w3.org/1999/xlink" width="72" height="41" viewBox="0.615 0.161 71.348 40.761"><path paint-order="stroke fill markers" fill-rule="evenodd" d="M.615.414C1.513.064 2.37.168 3.205.206 9.547.493 14.944 3.01 19.649 7.179c1.854 1.641 3.561 3.423 5.181 5.29.373.428.75.508 1.275.413 3.362-.613 6.754-.914 10.17-.753 7.29.34 14.094 2.277 20.249 6.293.53.346.868.78.993 1.41.678 3.425.934 6.802-.74 10.063-.573 1.117-.24 2.17.72 2.844.835.588 1.921.488 2.806-.327 1.046-.965 1.67-2.212 2.185-3.516.42-1.06.667-2.17.941-3.272.065-.263-.007-.66.306-.743.352-.096.516.293.709.514 2.387 2.737 4.342 5.753 5.795 9.085.844 1.934 1.526 3.916 1.719 6.036.012.13.001.262.001.406-.373-.032-.443-.32-.562-.52-2.396-3.997-6.081-5.768-10.573-6.25-3.67-.392-7.361-.458-11.03-.842-4.868-.51-9.602-1.488-13.875-4.023-2.9-1.721-5.2-4.128-7.31-6.706-3.003-3.67-5.866-7.455-8.91-11.09-3.9-4.654-8.52-8.33-14.518-9.966C3.975 1.195 2.75.958 1.516.758 1.24.714.945.74.616.414z"/></svg></svg><svg width="27" height="49" xmlns="http://www.w3.org/2000/svg" xmlns:xlink="http://www.w3.org/1999/xlink" xmlns:svgjs="http://svgjs.com/svgjs" viewBox="0 0.098 27 48.804" fill="#fff" x="1484" y="9713"><svg xmlns="http://www.w3.org/2000/svg" xmlns:xlink="http://www.w3.org/1999/xlink" width="27" height="49" viewBox="0.016 0.611 26.253 47.453"><path paint-order="stroke fill markers" fill-rule="evenodd" d="M26.262 26.59c.143 6.248-1.823 11.734-5.985 16.398-1.855 2.08-4.083 3.685-6.594 4.896-.19.09-.421.307-.613.081-.168-.198.014-.436.105-.633.666-1.446 1.31-2.898 1.642-4.468.74-3.502.124-6.825-1.331-10.035-1.555-3.43-3.687-6.523-5.734-9.663-1.582-2.427-3.25-4.8-4.682-7.322C1.162 12.483-.092 8.927.024 4.994a14.5 14.5 0 0 1 .63-3.769c.178-.592.464-.8 1.055-.429C6.017 3.502 10.646 5.648 14.927 8.4c3.128 2.01 6.034 4.267 8.112 7.422 2.15 3.267 3.198 6.874 3.223 10.769z"/></svg></svg><svg width="60" height="32" xmlns="http://www.w3.org/2000/svg" xmlns:xlink="http://www.w3.org/1999/xlink" xmlns:svgjs="http://svgjs.com/svgjs" viewBox="0 0.081 60 31.838" fill="#fff" x="1427" y="9740"><svg xmlns="http://www.w3.org/2000/svg" xmlns:xlink="http://www.w3.org/1999/xlink" width="60" height="32" viewBox="0.78 0.531 59.14 31.381"><path paint-order="stroke fill markers" fill-rule="evenodd" d="M25.105 17.799c-1.642.065-2.845-2.068-1.848-3.987.852-1.642 2.782-2.491 4.804-2.128 4.488.802 6.36 5.78 3.555 9.607-1.875 2.558-4.507 3.287-7.55 2.749-2.18-.387-3.949-1.53-5.502-3.052-1.5-1.47-2.98-2.965-4.5-4.416-2.874-2.744-6.438-3.953-10.272-4.541-.786-.12-1.571-.243-2.353-.386-.236-.043-.583-.005-.65-.29-.065-.279.253-.416.437-.578 3.427-2.985 7.177-5.48 11.34-7.317C16.816 1.585 21.218.343 25.928.554c3 .135 5.916.6 8.673 1.895 4.609 2.164 7.43 5.749 8.673 10.64.764 3.006 1.074 6.093 1.693 9.124.246 1.202.65 2.347 1.188 3.452 1.292 2.649 3.48 3.863 6.341 4.02 1.986.106 3.9-.258 5.765-.918.528-.187 1.062-.356 1.66-.556.014.449-.28.564-.485.71-2.328 1.657-4.826 2.907-7.751 2.987-2.764.076-5.17-.842-7.228-2.709-2.049-1.858-3.347-4.201-4.468-6.675-.984-2.172-1.901-4.378-3.092-6.45-1.8-3.132-4.28-5.473-7.877-6.303-2.807-.65-5.437-.236-7.498 2.027-1.955 2.146-1.874 5.54.215 7.557 1.353 1.305 2.97 2.067 4.908 2.003 3.086-.101 5.207-3.45 3.966-6.274-.845-1.921-3.904-2.873-5.723-1.832-1.423.815-2.116 3.271-.057 4.269.117.056.28.09.274.278z"/></svg></svg><svg width="17" height="26" xmlns="http://www.w3.org/2000/svg" xmlns:xlink="http://www.w3.org/1999/xlink" xmlns:svgjs="http://svgjs.com/svgjs" viewBox="0 0.206 17 25.588" fill="#fff" x="1435" y="9660"><svg xmlns="http://www.w3.org/2000/svg" xmlns:xlink="http://www.w3.org/1999/xlink" width="17" height="26" viewBox="0.053 0.79 16.215 24.406"><path paint-order="stroke fill markers" fill-rule="evenodd" d="M14.2 25.195c-1.148-.05-2.55-.64-3.875-1.447-4.194-2.553-6.806-6.35-8.493-10.861C.575 9.527-.113 6.067.087 2.46c.015-.284.033-.567.052-.85C.186.94.45.656 1.188.848c2.644.682 5.169 1.57 7.066 3.68 1.51 1.68 2.21 3.752 2.792 5.869.383 1.395.748 2.802 1 4.226.511 2.88 1.682 5.469 3.272 7.891.14.214.29.424.416.645.274.482.73.924.44 1.554-.172.375-.614.496-1.975.481z"/></svg></svg><svg width="35" height="27" xmlns="http://www.w3.org/2000/svg" xmlns:xlink="http://www.w3.org/1999/xlink" xmlns:svgjs="http://svgjs.com/svgjs" viewBox="0 0.415 35 26.17" fill="#fff" x="1447" y="9710"><svg xmlns="http://www.w3.org/2000/svg" xmlns:xlink="http://www.w3.org/1999/xlink" width="35" height="27" viewBox="0.011 0.393 34.867 26.071"><path paint-order="stroke fill markers" fill-rule="evenodd" d="M31.063.393c.425-.01.556.242.706.426 1.821 2.245 2.861 4.784 3.072 7.695.572 7.93-5.403 12.875-10.97 14.42-2.785.771-5.632 1.027-8.498 1.189-4.364.247-8.73.489-12.968 1.707-.734.211-1.468.426-2.205.632-.04.011-.098-.043-.189-.084.187-.43.61-.573.953-.79 3.465-2.193 7.29-3.38 11.298-4.09 3.102-.549 6.234-.961 9.288-1.74 4.177-1.065 7.539-3.275 9.497-7.251 1.331-2.703 1.454-5.564.923-8.486a29.863 29.863 0 0 0-.907-3.628z"/></svg></svg><svg width="13" height="11" xmlns="http://www.w3.org/2000/svg" xmlns:xlink="http://www.w3.org/1999/xlink" xmlns:svgjs="http://svgjs.com/svgjs" viewBox="0 0.225 13 10.549" fill="#fff" x="1439" y="9695"><svg xmlns="http://www.w3.org/2000/svg" xmlns:xlink="http://www.w3.org/1999/xlink" width="13" height="11" viewBox="0.032 0.408 12.651 10.266"><path paint-order="stroke fill markers" fill-rule="evenodd" d="M4.376 10.661c-.085 0-.17-.003-.255.001C.842 10.84-.275 9.035.102 5.882.445 3.014 2.93.551 5.578.42c3.224-.16 5.636 1.225 6.86 4.358.563 1.436.143 2.803-1.115 3.784-2.04 1.591-4.429 2.069-6.947 2.1zm2.14-5.044c.905-.096 1.803-.333 2.509-1.016.708-.686.695-1.563-.001-2.246-1.255-1.232-3.834-1.218-5.05.028-.684.7-.671 1.565.03 2.237.691.662 1.55.901 2.512.997z"/></svg></svg><svg width="22" height="29" xmlns="http://www.w3.org/2000/svg" xmlns:xlink="http://www.w3.org/1999/xlink" xmlns:svgjs="http://svgjs.com/svgjs" viewBox="0 0.408 22 28.184" fill="#fff" x="1483" y="9659"><svg xmlns="http://www.w3.org/2000/svg" width="22" height="29" viewBox="0.462 0.704 21.428 27.451"><path paint-order="stroke fill markers" fill-rule="evenodd" d="M.462 8.25c.454-.278.74-.07 1.023.001 2.564.645 5.038 1.566 7.524 2.453 1.192.425 1.33.366 1.46-.88.184-1.776.21-3.568.607-5.32.3-1.323.75-2.587 1.433-3.8.231.222.126.387.077.535-1.023 3.079-.692 6.169-.037 9.247.358 1.68 1.483 2.919 2.633 4.106 2.015 2.08 4.037 4.15 5.857 6.408.26.321.5.658.85 1.121-.563-.062-.756-.358-.988-.573a53.731 53.731 0 0 0-5.617-4.557c-1.087-.768-1.469-.582-1.633.74-.24 1.941-.067 3.915-.472 5.846-.332 1.582-.81 3.097-1.778 4.578-.053-.232-.104-.318-.083-.379 1.135-3.239.69-6.555.446-9.852-.175-2.376-1.446-4.132-3.386-5.44-1.959-1.322-4.036-2.427-6.185-3.404-.555-.252-1.1-.526-1.731-.83z"/></svg></svg></svg>