<svg width="126" height="136" xmlns="http://www.w3.org/2000/svg" xmlns:xlink="http://www.w3.org/1999/xlink" xmlns:svgjs="http://svgjs.com/svgjs" viewBox="1079 9969 126 136"><svg width="126" height="136" xmlns="http://www.w3.org/2000/svg" xmlns:xlink="http://www.w3.org/1999/xlink" xmlns:svgjs="http://svgjs.com/svgjs" viewBox="0.58 0 124.841 136" fill="#fff" x="1079" y="9969"><svg xmlns="http://www.w3.org/2000/svg" xmlns:xlink="http://www.w3.org/1999/xlink" width="126" height="136" viewBox="0.899 0.498 124.219 135.323"><path paint-order="stroke fill markers" fill-rule="evenodd" d="M83.357.498c3.592 1.995 6.531 4.766 9.407 7.663 9.496 9.562 19.105 19.01 28.584 28.59 3.22 3.256 4.707 7.186 3.148 11.783-1.493 4.399-4.424 7.344-9.075 8.24-4.079.783-7.538-.537-10.453-3.453-7.476-7.475-15.051-14.852-22.404-22.445-2.174-2.245-3.426-2.097-5.557.052C65.231 42.807 53.34 54.574 41.383 66.274c-1.566 1.532-1.225 2.337.068 3.616 12.137 12.014 24.275 24.028 36.315 36.138 1.929 1.94 3.016 1.147 4.517-.367C89.81 98.072 97.4 90.55 104.97 83.003c3.33-3.32 7.259-4.526 11.796-3.102 4.525 1.42 7.071 4.727 8.081 9.23.894 3.981-.533 7.425-3.261 10.18A3589.224 3589.224 0 0 1 89 131.786c-1.628 1.603-3.75 2.701-5.644 4.034h-6.975c-3.492-1.932-6.357-4.612-9.161-7.416-13.31-13.303-26.668-26.555-40.038-39.798-.763-.754-1.296-1.968-3.043-1.906l-.001 3.795c-.005 7.434.109 14.87-.052 22.302-.142 6.628-5.627 11.935-11.806 11.752C5.678 124.352.928 119.404.92 112.476.884 82.856.907 53.236.9 23.614c0-1.878.178-3.69 1.087-5.398 2.452-4.61 7.714-7.293 12.488-6.309 5.458 1.126 9.471 5.65 9.601 11.329.17 7.431.03 14.869.089 22.302.01 1.195-.48 2.541.745 3.767.8-.702 1.6-1.339 2.325-2.053C40.481 34.22 53.742 21.202 66.938 8.118 69.837 5.243 72.8 2.5 76.382.498h6.975z"/></svg></svg><svg width="24" height="25" xmlns="http://www.w3.org/2000/svg" xmlns:xlink="http://www.w3.org/1999/xlink" xmlns:svgjs="http://svgjs.com/svgjs" viewBox="0 0.508 24 23.984" fill="#fff" x="1147" y="10025"><svg xmlns="http://www.w3.org/2000/svg" width="24" height="25" viewBox="0.076 0.34 23.677 23.661"><path paint-order="stroke fill markers" fill-rule="evenodd" d="M23.753 12.135c.016 6.293-5.569 11.927-11.76 11.865C5.627 23.936.114 18.484.076 12.212.038 6.053 5.744.334 11.918.34c6.317.006 11.82 5.49 11.835 11.795z"/></svg></svg></svg>