<svg width="156" height="98" xmlns="http://www.w3.org/2000/svg" xmlns:xlink="http://www.w3.org/1999/xlink" xmlns:svgjs="http://svgjs.com/svgjs" viewBox="1064 9643 156 98"><svg width="92" height="98" xmlns="http://www.w3.org/2000/svg" xmlns:xlink="http://www.w3.org/1999/xlink" xmlns:svgjs="http://svgjs.com/svgjs" viewBox="0 0.044 92 97.911" fill="#fff" x="1064" y="9643"><svg xmlns="http://www.w3.org/2000/svg" xmlns:xlink="http://www.w3.org/1999/xlink" width="92" height="98" viewBox="0.047 0.459 91.084 96.937"><path paint-order="stroke fill markers" fill-rule="evenodd" d="M91.131 97.377c-25.314-.002-50.63.067-75.944-.052C7.547 97.29.514 89.814.079 82.186c-.27-4.733 1.208-8.726 3.557-12.745C15.245 49.583 26.609 29.58 38.204 9.716c7.221-12.37 22.79-12.314 30.174-.004 2.66 4.437 5.184 8.96 7.767 13.443.478.83.896 1.704 1.733 2.257.79 1.986.103 3.726-.884 5.424C69.02 44.553 61.14 58.325 53.303 72.119c-3.752 6.602-2.977 14.033 2.071 19.659 1.723 1.116 2.994 2.928 5.17 3.35.787.32 1.58.596 2.448.573 1.574-.275 3.146-.224 4.721-.03 1.86-.083 3.707-.412 5.576-.257 2.062.077 4.13-.1 6.182.22 1.199.122 2.402-.09 3.6.052 1.224.043 2.442-.16 3.667-.085 1.603.251 3.815-1.002 4.393 1.776z"/></svg></svg><svg width="79" height="98" xmlns="http://www.w3.org/2000/svg" xmlns:xlink="http://www.w3.org/1999/xlink" xmlns:svgjs="http://svgjs.com/svgjs" viewBox="0 0.113 79 97.773" fill="#656565" x="1141" y="9643"><svg xmlns="http://www.w3.org/2000/svg" xmlns:xlink="http://www.w3.org/1999/xlink" width="79" height="98" viewBox="0.837 0.489 78.133 96.7"><path paint-order="stroke fill markers" fill-rule="evenodd" d="M1.456 25.389c3.107-5.4 6.128-10.853 9.34-16.192 6.986-11.614 22.763-11.624 29.57.051 12.023 20.621 23.945 41.3 35.833 62 4.8 8.358 3.277 16.744-3.882 22.696-3.522 2.601-7.475 3.496-11.81 3.187-2.37-.168-4.761-.026-7.14-.032-4.182-.75-8.45-1.28-11.593-4.656-.376-.403-1.045-.427-1.571-.643-.878-.521-1.184-1.595-2.054-2.125-1.715-.947-2.667-2.572-3.668-4.15-.647-1.023-1.172-2.148-2.37-2.683-1.336-1.747-1.853-3.963-3.234-5.685-2.055-1.836-2.2-4.865-4.209-6.732-.785-1.801-1.876-3.42-3.028-5-.845-1.307-1.28-2.84-2.24-4.084-.683-.662-1.421-1.285-1.521-2.324-.8-2.876-2.494-5.26-4.207-7.632-1.156-1.95-1.814-4.17-3.231-5.98C9.634 43.99 8.29 43 7.434 41.62c-.557-2.833-2.734-4.76-4.033-7.182-.391-1.36-.629-2.698-1.574-3.926-1.14-1.482-1.337-3.337-.371-5.124z"/></svg></svg><svg width="33" height="68" xmlns="http://www.w3.org/2000/svg" xmlns:xlink="http://www.w3.org/1999/xlink" xmlns:svgjs="http://svgjs.com/svgjs" viewBox="0.096 0 32.808 68" fill="#bebebe" x="1113" y="9668"><svg xmlns="http://www.w3.org/2000/svg" xmlns:xlink="http://www.w3.org/1999/xlink" width="33" height="68" viewBox="0.386 0.388 32.517 67.395"><path paint-order="stroke fill markers" fill-rule="evenodd" d="M29.456.388c.028 3.326 2.467 5.691 3.447 8.64-.224.313-.47.761-.833.738-3.212-.194-3.898 2.215-4.619 4.498-3.663 11.611-8.52 22.792-12.324 34.358-1.732 5.267-3.905 10.403-5.974 15.558-.625 1.56-1.21 3.33-3.316 3.604-5.41-4.376-7.187-13.132-3.53-19.87 5.242-9.656 10.937-19.067 16.264-28.68C22.038 12.98 26.231 7.118 28.878.413l.578-.024z"/></svg></svg><svg width="65" height="34" xmlns="http://www.w3.org/2000/svg" xmlns:xlink="http://www.w3.org/1999/xlink" xmlns:svgjs="http://svgjs.com/svgjs" viewBox="0 0.161 65 33.677" fill="#bebebe" x="1149" y="9707"><svg xmlns="http://www.w3.org/2000/svg" xmlns:xlink="http://www.w3.org/1999/xlink" width="65" height="34" viewBox="0.432 0.408 63.885 33.099"><path paint-order="stroke fill markers" fill-rule="evenodd" d="M14.736.598c1.414 1.445 2.348 3.17 2.943 5.089.463.765.9 1.723.26 2.397-2.5 2.63-2.846 6.187-4.159 9.315-1.325 3.16-2.364 6.435-3.638 9.621-1.374 3.438-.998 3.953 2.775 4.355.28.03.552.145.836.208 2.113-.117 4.22-.263 6.324.073 2.442-.158 4.882-.419 7.325-.026 1.443.088 2.888-.156 4.33.04 4.423-.691 8.713.153 12.992 1.118 2.975.022 5.959-.105 8.92.1 3.947.274 7.25-1.488 10.673-2.945-2.624 2.79-6 3.572-9.647 3.564-16.18-.035-32.36-.085-48.539-.13-1.464-.798-3.069-.427-4.614-.549-1.263-.986-1.282-2.21-.771-3.603C3.907 20.604 6.759 11.87 10.171 3.34c.815-2.04 2.06-3.465 4.565-2.742z"/></svg></svg><svg width="32" height="65" xmlns="http://www.w3.org/2000/svg" xmlns:xlink="http://www.w3.org/1999/xlink" xmlns:svgjs="http://svgjs.com/svgjs" viewBox="0.263 0 31.474 65" fill="#bebebe" x="1118" y="9675"><svg xmlns="http://www.w3.org/2000/svg" xmlns:xlink="http://www.w3.org/1999/xlink" width="32" height="65" viewBox="0.837 0.892 30.677 63.354"><path paint-order="stroke fill markers" fill-rule="evenodd" d="M.837 60.784C8.917 42.34 15.046 23.16 21.982 4.285c1.472-4.006 1.343-4.054 5.92-2.257 1.102 2.371 3.055 4.301 3.612 6.956a1.38 1.38 0 0 1-.788.299c-2.634-1.585-3.101-1.436-4.075 1.39-5.612 16.3-11.976 32.329-17.527 48.651-.618 1.817-1.261 3.795-3.104 4.922-2.088-.613-3.859-1.705-5.183-3.462z"/></svg></svg><svg width="27" height="53" xmlns="http://www.w3.org/2000/svg" xmlns:xlink="http://www.w3.org/1999/xlink" xmlns:svgjs="http://svgjs.com/svgjs" viewBox="0.222 0 26.555 53" fill="#bebebe" x="1130" y="9687"><svg xmlns="http://www.w3.org/2000/svg" xmlns:xlink="http://www.w3.org/1999/xlink" width="27" height="53" viewBox="0.486 0.777 26.071 52.033"><path paint-order="stroke fill markers" fill-rule="evenodd" d="M22.299.84c1.496 1.738 2.656 3.674 3.423 5.84 1.173 1.57 1.252 2.862-.68 4-1.195.702-1.573 2.115-2.07 3.362-4.67 11.724-8.412 23.792-13.14 35.496-.553 1.367-1.112 2.644-2.56 3.272l-5.759-.003c-1.907-1.63-.685-3.412-.083-5.004 3.663-9.683 6.911-19.516 10.663-29.166 1.84-4.733 3.353-9.584 5.065-14.363.915-2.556 2.417-3.798 5.14-3.435z"/></svg></svg><svg width="28" height="57" xmlns="http://www.w3.org/2000/svg" xmlns:xlink="http://www.w3.org/1999/xlink" xmlns:svgjs="http://svgjs.com/svgjs" viewBox="0.492 0 27.016 57" fill="#bebebe" x="1125" y="9683"><svg xmlns="http://www.w3.org/2000/svg" xmlns:xlink="http://www.w3.org/1999/xlink" width="28" height="57" viewBox="0.622 0.196 26.831 56.612"><path paint-order="stroke fill markers" fill-rule="evenodd" d="M27.298 4.84c-.22.55.79 1.906-.575 1.596-2.263-.513-2.656.94-3.183 2.39-3.87 10.637-7.878 21.227-11.512 31.944-1.814 5.354-4.415 10.441-5.515 16.038-1.727-.005-3.455-.01-5.183-.013-.904-.83-.827-1.655-.41-2.814 4.33-12.024 9.066-23.9 13.092-36.042 1.761-5.308 4.06-10.452 5.871-15.766.668-1.96 2.033-2.636 3.908-1.232l.722.043c1.427.925 2.396 2.18 2.785 3.855z"/></svg></svg><svg width="23" height="47" xmlns="http://www.w3.org/2000/svg" xmlns:xlink="http://www.w3.org/1999/xlink" xmlns:svgjs="http://svgjs.com/svgjs" viewBox="0 0.035 23 46.929" fill="#bebebe" x="1137" y="9693"><svg xmlns="http://www.w3.org/2000/svg" xmlns:xlink="http://www.w3.org/1999/xlink" width="23" height="47" viewBox="0.273 0.682 22.611 46.136"><path paint-order="stroke fill markers" fill-rule="evenodd" d="M.273 46.81C5.309 33.075 10.337 19.335 15.396 5.607c.506-1.371.738-2.965 2.885-3.029 1.157-.035.37-1.224.441-1.896 1.867 2.452 3.668 4.938 4.162 8.095-2.849 2.645-3.813 6.291-4.972 9.766-2.721 8.162-6.116 16.078-8.72 24.278-.504 1.592-1.203 3-2.586 3.997L.273 46.81z"/></svg></svg><svg width="25" height="59" xmlns="http://www.w3.org/2000/svg" xmlns:xlink="http://www.w3.org/1999/xlink" xmlns:svgjs="http://svgjs.com/svgjs" viewBox="0.004 0 24.993 59" fill="#bebebe" x="1124" y="9681"><svg xmlns="http://www.w3.org/2000/svg" xmlns:xlink="http://www.w3.org/1999/xlink" width="25" height="59" viewBox="0.02 0.319 24.771 58.476"><path paint-order="stroke fill markers" fill-rule="evenodd" d="M24.791 2.94c-1.57-.045-2.35.745-2.884 2.225-4.998 13.866-9.796 27.806-15.187 41.53-1.568 3.992-2.932 8.064-4.39 12.1-.816.01-1.611-.068-2.31-.55.96-4.519 2.968-8.685 4.504-13.002C9.538 31.147 14.817 17.144 20.027 3.118c.408-1.098.406-2.74 2.033-2.798 1.618-.057 2.086 1.459 2.731 2.62z"/></svg></svg><svg width="19" height="39" xmlns="http://www.w3.org/2000/svg" xmlns:xlink="http://www.w3.org/1999/xlink" xmlns:svgjs="http://svgjs.com/svgjs" viewBox="0.168 0 18.664 39" fill="#bebebe" x="1143" y="9701"><svg xmlns="http://www.w3.org/2000/svg" xmlns:xlink="http://www.w3.org/1999/xlink" width="19" height="39" viewBox="0.606 0.558 18.312 38.263"><path paint-order="stroke fill markers" fill-rule="evenodd" d="M.606 38.819c1.093-5.486 3.404-10.573 5.212-15.82 2.279-6.613 4.791-13.146 7.093-19.752.708-2.032 1.676-3.201 3.971-2.47.528.599 1.053 1.198 1.579 1.797.468.796.708 1.756.066 2.414-2.978 3.047-3.59 7.172-4.934 10.908A2391.81 2391.81 0 0 1 6.386 35.63c-.49 1.328-1.286 2.32-2.324 3.193l-3.456-.003z"/></svg></svg><svg width="17" height="37" xmlns="http://www.w3.org/2000/svg" xmlns:xlink="http://www.w3.org/1999/xlink" xmlns:svgjs="http://svgjs.com/svgjs" viewBox="0 0.018 17 36.965" fill="#bebebe" x="1147" y="9703"><svg xmlns="http://www.w3.org/2000/svg" xmlns:xlink="http://www.w3.org/1999/xlink" width="17" height="37" viewBox="0.062 0.573 16.674 36.255"><path paint-order="stroke fill markers" fill-rule="evenodd" d="M.062 36.822c.564-3.925 2.472-7.391 3.777-11.063 2.393-6.738 4.912-13.436 7.05-20.254.69-2.2 2.974-2.883 3.573-4.932l2.274 4.025c-1.971.864-2.994 2.416-3.704 4.43-2.851 8.086-5.833 16.125-8.772 24.18-.428 1.172-.751 2.36-.743 3.62l-3.455-.006z"/></svg></svg><svg width="15" height="28" xmlns="http://www.w3.org/2000/svg" xmlns:xlink="http://www.w3.org/1999/xlink" xmlns:svgjs="http://svgjs.com/svgjs" viewBox="0 0.155 15 27.69" fill="#bebebe" x="1156" y="9712"><svg xmlns="http://www.w3.org/2000/svg" xmlns:xlink="http://www.w3.org/1999/xlink" width="15" height="28" viewBox="0.235 0.687 14.687 27.112"><path paint-order="stroke fill markers" fill-rule="evenodd" d="M6.06 27.785c-6.781.074-6.772.077-4.346-6.193 1.418-3.667 2.844-7.33 4.188-11.023C7.16 7.108 7.944 3.431 10.679.687c1.865 2.008 2.798 4.559 4.035 6.933.209.558.33 1.178.02 1.677-2.957 4.79-4.12 10.302-6.213 15.44-.536 1.314-1.299 2.307-2.462 3.048z"/></svg></svg><svg width="13" height="21" xmlns="http://www.w3.org/2000/svg" xmlns:xlink="http://www.w3.org/1999/xlink" xmlns:svgjs="http://svgjs.com/svgjs" viewBox="0 0.203 13 20.594" fill="#bebebe" x="1162" y="9719"><svg xmlns="http://www.w3.org/2000/svg" xmlns:xlink="http://www.w3.org/1999/xlink" width="13" height="21" viewBox="0.059 0.62 12.729 20.165"><path paint-order="stroke fill markers" fill-rule="evenodd" d="M.06 20.785C2.042 15.143 4.045 9.51 5.996 3.856 6.499 2.401 7.885 1.761 8.713.62c1.673 1.39 2.35 3.434 3.422 5.217.609.918.92 1.844.361 2.935-1.393 2.726-2.164 5.688-3.132 8.571-.475 1.415-1.234 2.544-2.394 3.439l-6.91.003z"/></svg></svg><svg width="12" height="16" xmlns="http://www.w3.org/2000/svg" xmlns:xlink="http://www.w3.org/1999/xlink" xmlns:svgjs="http://svgjs.com/svgjs" viewBox="0.137 0 11.726 16" fill="#bebebe" x="1168" y="9724"><svg xmlns="http://www.w3.org/2000/svg" xmlns:xlink="http://www.w3.org/1999/xlink" width="12" height="16" viewBox="0.97 0.838 10.952 14.944"><path paint-order="stroke fill markers" fill-rule="evenodd" d="M.97 15.782C2.1 11.287 3.256 6.804 5.542 2.709c.312-.56.401-1.244.593-1.87 2.559 1.773 3.216 5.125 5.752 6.916.267 3.28-.983 5.909-3.432 8.027H.97z"/></svg></svg><svg width="15" height="7" xmlns="http://www.w3.org/2000/svg" xmlns:xlink="http://www.w3.org/1999/xlink" xmlns:svgjs="http://svgjs.com/svgjs" viewBox="0 0.121 15 6.758" fill="#bebebe" x="1179" y="9733"><svg xmlns="http://www.w3.org/2000/svg" xmlns:xlink="http://www.w3.org/1999/xlink" width="15" height="7" viewBox="0.665 0.454 14.059 6.334"><path paint-order="stroke fill markers" fill-rule="evenodd" d="M14.724 6.788c-4.416-.002-8.833-.003-13.25-.003C.13 4.74.426 3.11 2.625.454a57.184 57.184 0 0 0 12.1 6.334z"/></svg></svg><svg width="6" height="9" xmlns="http://www.w3.org/2000/svg" xmlns:xlink="http://www.w3.org/1999/xlink" xmlns:svgjs="http://svgjs.com/svgjs" viewBox="0 0.089 6 8.822" fill="#bebebe" x="1176" y="9731"><svg xmlns="http://www.w3.org/2000/svg" width="6" height="9" viewBox="0.454 0.755 5.461 8.029"><path paint-order="stroke fill markers" fill-rule="evenodd" d="M5.625 2.453c1.12 2.385-1.377 4.11-1.151 6.332l-4.02-.003c.647-2.889 1.53-5.676 3.433-8.027l1.738 1.698z"/></svg></svg></svg>