<svg width="142" height="124" xmlns="http://www.w3.org/2000/svg" xmlns:xlink="http://www.w3.org/1999/xlink" xmlns:svgjs="http://svgjs.com/svgjs" viewBox="714 9643 142 124"><svg width="34" height="34" xmlns="http://www.w3.org/2000/svg" xmlns:xlink="http://www.w3.org/1999/xlink" xmlns:svgjs="http://svgjs.com/svgjs" viewBox="0.041 0 33.919 34" fill="#fff" x="714" y="9688"><svg xmlns="http://www.w3.org/2000/svg" xmlns:xlink="http://www.w3.org/1999/xlink" width="34" height="34" viewBox="0.617 0.338 32.679 32.757"><path paint-order="stroke fill markers" fill-rule="evenodd" d="M.617.42C2.413.415 4.208.436 6.003.405 12.668.293 19.333.352 25.997.371c2.275.006 4.551.022 6.827.045.45.004.464.015.464.486.003 3.463.008 6.927.008 10.39-.001 7.056-.005 14.113-.008 21.17 0 .58 0 .58-.581.58l-11.759.008c-1.16.002-2.323.058-3.482.043-5.456-.071-10.911-.028-16.367-.05-.164 0-.33.01-.482-.073V.42z"/></svg></svg><svg width="102" height="34" xmlns="http://www.w3.org/2000/svg" xmlns:xlink="http://www.w3.org/1999/xlink" xmlns:svgjs="http://svgjs.com/svgjs" viewBox="0 0.497 102 33.007" fill="#fff" x="754" y="9643"><svg xmlns="http://www.w3.org/2000/svg" xmlns:xlink="http://www.w3.org/1999/xlink" width="102" height="34" viewBox="0.401 0.459 101.069 32.705"><path paint-order="stroke fill markers" fill-rule="evenodd" d="M50.95.459h49.857c.662 0 .663 0 .663.673v31.387c0 .117-.005.235-.002.352.008.212-.101.297-.302.292-.094-.002-.188.001-.282.001H.996c-.594 0-.595 0-.595-.603V1.068C.402.95.405.833.407.716.408.54.502.462.672.462c.14 0 .281-.003.422-.003h49.857z"/></svg></svg><svg width="74" height="34" xmlns="http://www.w3.org/2000/svg" xmlns:xlink="http://www.w3.org/1999/xlink" xmlns:svgjs="http://svgjs.com/svgjs" viewBox="0 0.425 74 33.15" fill="#fff" x="754" y="9688"><svg xmlns="http://www.w3.org/2000/svg" xmlns:xlink="http://www.w3.org/1999/xlink" width="74" height="34" viewBox="0.41 0.335 73.027 32.714"><path paint-order="stroke fill markers" fill-rule="evenodd" d="M36.896 33.042H1.09c-.082 0-.164-.006-.246 0-.267.022-.384-.086-.378-.365.018-.845-.046-1.69-.047-2.533-.01-8.947-.011-17.895 0-26.842C.42 2.47.488 1.636.463.804.452.44.642.412.924.413c2.371.004 4.742 0 7.112 0C10.524.41 13.013.428 15.5.406 29.195.285 42.89.349 56.586.374c5.432.01 10.865.008 16.298.042.47.003.48.01.482.466.002.458-.003.916.002 1.374.08 7.784.085 15.567.044 23.351-.013 2.324-.022 4.648-.046 6.972-.005.452-.013.463-.487.463-5.668.003-11.337.006-17.006.006H36.896v-.006z"/></svg></svg><svg width="34" height="34" xmlns="http://www.w3.org/2000/svg" xmlns:xlink="http://www.w3.org/1999/xlink" xmlns:svgjs="http://svgjs.com/svgjs" viewBox="0.013 0 33.973 34" fill="#fff" x="754" y="9733"><svg xmlns="http://www.w3.org/2000/svg" width="34" height="34" viewBox="0.399 0.29 32.687 32.713"><path paint-order="stroke fill markers" fill-rule="evenodd" d="M33.076 16.899c0 3.171.03 6.342-.012 9.512-.027 2.017-.05 4.036-.058 6.054-.001.433-.02.451-.464.452-2.464.003-4.93-.036-7.393.015-4.33.089-8.66.086-12.988.04-3.707-.04-7.414-.04-11.121-.049-.36 0-.525-.123-.536-.473-.006-.176-.021-.352-.022-.527-.003-3.077.038-6.154-.018-9.229a344.43 344.43 0 0 1-.04-10.775C.475 8.222.465 4.525.483.827c.002-.432.02-.45.464-.45C2.543.374 4.14.399 5.735.367c6.5-.13 13-.06 19.5-.045 2.452.006 4.904.047 7.355.05.33 0 .426.12.42.433-.05 2.865.073 5.728.067 8.592-.006 2.5-.001 5.001-.001 7.502z"/></svg></svg></svg>