<svg width="136" height="137" xmlns="http://www.w3.org/2000/svg" xmlns:xlink="http://www.w3.org/1999/xlink" xmlns:svgjs="http://svgjs.com/svgjs" viewBox="0 0.48 136 136.039" fill="#fff"><svg xmlns="http://www.w3.org/2000/svg" width="136" height="137" viewBox="0.422 0.669 135.294 135.333"><path paint-order="stroke fill markers" fill-rule="evenodd" d="M30.988 68.336L15.724 83.6.422 68.336l15.264-15.263 15.302 15.263zm37.101-37.101l26.182 26.183 15.264-15.264L68.089.669 26.605 42.154l15.263 15.264 26.221-26.183zm52.364 21.838L105.19 68.336 120.453 83.6l15.264-15.264-15.264-15.263zM68.09 105.437L41.907 79.255 26.643 94.519l41.446 41.483 41.446-41.483L94.27 79.255 68.09 105.437zm0-21.837l15.263-15.264L68.09 53.073 52.787 68.336 68.09 83.6z"/></svg></svg>