<svg width="96" height="145" xmlns="http://www.w3.org/2000/svg" xmlns:xlink="http://www.w3.org/1999/xlink" xmlns:svgjs="http://svgjs.com/svgjs" viewBox="1403 9965 96 145"><svg width="64" height="145" xmlns="http://www.w3.org/2000/svg" xmlns:xlink="http://www.w3.org/1999/xlink" xmlns:svgjs="http://svgjs.com/svgjs" viewBox="0.516 0 62.969 145" fill="#fff" x="1403" y="9965"><svg xmlns="http://www.w3.org/2000/svg" xmlns:xlink="http://www.w3.org/1999/xlink" width="64" height="145" viewBox="0.614 0.018 62.657 144.282"><path paint-order="stroke fill markers" fill-rule="evenodd" d="M46.158.018c10.796 10.787 15.308 24.3 16.924 39.06.874 7.984-1.333 15.175-5.568 21.886-5.096 8.076-11.33 15.315-16.824 23.095-4.052 5.737-7.682 11.719-9.596 18.557-2.664 9.514-.483 18.494 3.293 27.223 1.348 3.116 3.114 6.049 4.591 9.113.686 1.423 2.27 2.991.988 4.523-1.338 1.599-3.29.459-4.922.02-9.704-2.612-17.222-8.533-23.278-16.243-15.79-20.1-14.697-45.733 2.542-64.807 4.626-5.119 9.481-10.04 13.906-15.324C39.608 33.515 44.091 17.533 43.824.018h2.334z"/></svg></svg><svg width="47" height="87" xmlns="http://www.w3.org/2000/svg" xmlns:xlink="http://www.w3.org/1999/xlink" xmlns:svgjs="http://svgjs.com/svgjs" viewBox="0.172 0 46.656 87" fill="#fff" x="1452" y="10022"><svg xmlns="http://www.w3.org/2000/svg" width="47" height="87" viewBox="0.242 0.817 46.005 85.785"><path paint-order="stroke fill markers" fill-rule="evenodd" d="M46.247 39.655c-.527 17.658-8.697 31.22-24.362 40.285-2.704 1.565-5.43 3.036-7.244 5.717-1.04 1.538-2.031.974-3.058-.102C1.616 75.116-2.357 63.13 1.988 48.93c2.387-7.803 6.256-14.854 10.822-21.543 5.384-7.888 10.554-15.883 13.38-25.117.616-2.011 1.389-1.67 2.597-.566 11.015 10.072 17.135 22.408 17.46 37.951z"/></svg></svg></svg>