<svg width="141" height="133" xmlns="http://www.w3.org/2000/svg" xmlns:xlink="http://www.w3.org/1999/xlink" xmlns:svgjs="http://svgjs.com/svgjs" viewBox="712 9979 141 133"><svg width="141" height="133" xmlns="http://www.w3.org/2000/svg" xmlns:xlink="http://www.w3.org/1999/xlink" xmlns:svgjs="http://svgjs.com/svgjs" viewBox="0 0.098 141 132.804" fill="#fff" x="712" y="9979"><svg xmlns="http://www.w3.org/2000/svg" xmlns:xlink="http://www.w3.org/1999/xlink" width="141" height="133" viewBox="0.56 0.118 140.219 132.068"><path paint-order="stroke fill markers" fill-rule="evenodd" d="M.56 20.123l26.788 9.467c-.638-3.994-1.186-7.775-.345-11.538.836-3.744 2.558-7.035 5.57-10.136l3.162 9.817C40.093 6.256 48.072.583 60.005.118c-.448 2.394-2.302 3.834-3.277 6.545C78.49-2.675 98.247.418 116.413 14.87l-8.709-.683c24.202 14.048 34.864 35.016 32.831 63.317l-4.473-5.014c1.076 20.954-7.842 36.464-24.059 49.292l1.426-8.207c-5.89 7.025-12.507 12.752-20.832 16.32-1.723.738-3.513 1.341-5.308 1.886-1.028.312-2.351.824-3.091-.214-.709-.995.432-1.77.989-2.563.156-.223.128-.576.274-1.335-10.866 4.227-21.64 4.317-32.507 1.341 7.458-1.45 14.816-2.923 21.335-7.185 17.759-11.61 19.691-36.302 3.924-50.39-1.705-1.523-2.71-1.769-4.044.318-1.308 2.048-2.949 3.88-4.403 5.836-2.018 2.716-3.474 5.518-3.056 9.18.336 2.945-.77 5.686-3.06 7.772-2.537 2.311-5.066 4.633-7.642 6.9-1.964 1.729-4.36 2.079-6.868 1.891-1.466-.109-2.82-.005-4.124.858-5.703 3.77-14.635 1.035-17.59-5.093-2.457-5.095-3.253-9.914.287-14.873 2.179-3.054 2.742-6.682 3.122-10.368.52-5.068 1.296-10.109 1.938-15.165.197-1.548.427-3.222-.439-4.559-1.81-2.791-2.377-5.706-1.414-8.866.525-1.72-.842-2.035-1.774-2.714-8.685-6.324-17.382-12.634-26.04-18.995-.839-.616-2-1.01-2.546-3.434zm55.656 69.83c-2.343 1.466-4.538 3.115-6.146 5.4-.665.944-2.473 1.778-1.738 2.857.814 1.196 2.65.509 4.02.26.604-.11 1.198-.574 1.68-1.009 2.138-1.934 4.287-3.861 6.332-5.891 2.26-2.245 2.991-4.816 1.43-7.842-1.909-3.7-5.152-5.953-8.289-5.588-1.005.116-2.004.283-3.386.482 1.585-2.885 5.08-2.854 6.02-5.652.103-.305.67-.283 1.098.084 3.567 3.073 4.515 2.892 6.799-1.064 1.217-2.109 2.591-4.125 3.816-6.23 1.504-2.585 3.412-3.826 6.679-3.846 7.963-.048 13.795-5.84 14.214-13.831.166-3.166 1.058-6.612-1.606-9.358l-.666-2.58-.372-.808c2.731-1.03 3.45 1.956 5.31 2.662 2.608 4.596 5.263 9.159 6.121 14.512.139.864 1.605 2.131 1.43 2.337-2.351 2.763-.838 6.064-1.267 9.04-.373 2.584-1.528 5.272 0 8.079 2.6 4.779 3.294 10.056 3.187 15.451-.178 8.926-4.207 16.542-8.238 24.146-.42.794-1.258 1.556-.43 2.297.676.605 1.42-.289 2.002-.698 1.811-1.272 3.644-2.536 5.314-3.982 11.143-9.64 16.9-21.814 17.053-36.59-.214-21.329-14.254-39.958-34.363-45.596-2.038-.478-4.06-1.058-6.12-1.408-2.488-.423-4.606 2.105-3.855 4.56.354 1.155.946 2.238 1.43 3.353.967 2.574 1.771 5.225 2.94 7.705 1.526 3.241.795 5.922-.782 8.995-1.107 2.157-2.778 1.138-4.07 1.805-.563.29-.547 2.165-1.823.78-1.032-1.12.324-1.5.692-2.123 2.215-3.74 3.59-7.483.957-11.65-.694-1.098-1.02-2.429-1.515-3.652-.587-2.806-1.83-4.018-4.513-1.908-.832.654-2.171.398-2.784 1.489l-2.604.25c-.282-.31-.564-.278-.847 0l-1.057-.055-.246-1.15c9.12-5.739 11.923-14.353 7.361-23.432-1.553 2.108-3.296 3.948-4.427 6.11-3.202 6.116-7.573 11.383-11.704 16.832-.979 1.29-2.3 2.068-3.652.746-1.604-1.569-1.717-.013-2.043.836-1.27 3.302-2.413 6.654-3.683 9.956-1.778 4.624-1.61 9.027.915 13.401 1.638 2.836 2.088 5.886.132 9.226-1.085-2.06-1.65-4.116-3.186-5.543-.812.465-.64 1.202-.727 1.825-1.257 8.943-1.25 18.173-6.53 26.156-1.156 1.749 1.463 8.795 3.256 9.946 2.398 1.537 6.6 1.486 8.417-.104 4.034-2.97 7.261-6.35 6.666-11.95-.11-1.028.318-2.149.646-3.18.522-1.645 1.452-2.664 3.424-1.967.806.286 1.711.29 2.571.423 2.666 1.899 2.82 3.265.757 6.686zm-35.024-57.43c4.222 2.502 8.433 5.023 12.674 7.491.992.577 2.132 1.542 3.1-.054.832-1.374.067-2.56-1.031-3.03-4.707-2.024-9.357-4.284-14.743-4.407zm29.714 58.511c1.695-.94 2.324-2.151 3.519-2.746 1.11-.552 1.777-1.762.618-2.9-.95-.932-2.045-.957-3.176.034-1.733 1.516-.9 3.318-.961 5.612z"/></svg></svg><svg width="26" height="78" xmlns="http://www.w3.org/2000/svg" xmlns:xlink="http://www.w3.org/1999/xlink" xmlns:svgjs="http://svgjs.com/svgjs" viewBox="0.095 0 25.811 78" fill="#b7b7b7" x="803" y="10016"><svg xmlns="http://www.w3.org/2000/svg" xmlns:xlink="http://www.w3.org/1999/xlink" width="26" height="78" viewBox="0.412 0.999 25.171 76.066"><path paint-order="stroke fill markers" fill-rule="evenodd" d="M.412.999c2.107.027 3.238 1.694 4.673 2.822 9.855 7.737 16.884 17.3 19.216 29.881.148.8-.092 1.904 1.282 1.89-.152 14.775-5.91 26.949-17.053 36.59-1.67 1.445-3.503 2.71-5.314 3.981-.582.41-1.326 1.303-2.003.698-.827-.74.01-1.502.431-2.297 4.03-7.604 8.06-15.22 8.238-24.145.107-5.396-.587-10.672-3.187-15.452-1.528-2.807-.373-5.495 0-8.078.429-2.977-1.084-6.278 1.267-9.04.175-.207-1.291-1.473-1.43-2.337C5.674 10.158 3.02 5.595.412.999zM19.018 50.28l.255 1.501c.12-.096.32-.173.35-.293.142-.558-.001-1.007-.604-1.212l-.241-3.763c-.388 1.932-1.17 2.977.24 3.767zM14.594 32.48c-.425 2.469-.13 4.778 1.32 6.825l-1.32-6.825z"/></svg></svg><svg width="54" height="62" xmlns="http://www.w3.org/2000/svg" xmlns:xlink="http://www.w3.org/1999/xlink" xmlns:svgjs="http://svgjs.com/svgjs" viewBox="0.346 0 53.308 62" fill="#b7b7b7" x="748" y="10017"><svg xmlns="http://www.w3.org/2000/svg" xmlns:xlink="http://www.w3.org/1999/xlink" width="54" height="62" viewBox="0.387 0.725 52.634 61.216"><path paint-order="stroke fill markers" fill-rule="evenodd" d="M4.185 42.575l2.69 2.819C7.973 43.082 8.95 40.9 10.03 38.77c1.977-3.9 7.874-7.043 12.34-6.542.789.087.964-.307 1.178-.798.395-.914.928-1.814 1.094-2.773.913-5.276 4.837-6.621 9.317-7.36 12.161-2.001 16.258-6.692 16.74-19.053.02-.512.287-1.014.44-1.52 2.664 2.746 1.772 6.192 1.606 9.358-.419 7.992-6.25 13.782-14.214 13.83-3.267.021-5.175 1.262-6.679 3.846-1.225 2.105-2.599 4.123-3.816 6.231-2.284 3.955-3.232 4.137-6.8 1.065-.426-.368-.994-.39-1.097-.085-.94 2.798-4.435 2.767-6.02 5.652 1.382-.2 2.38-.366 3.386-.482 3.137-.365 6.38 1.89 8.29 5.589 1.56 3.025.83 5.596-1.431 7.841-2.045 2.03-4.194 3.957-6.332 5.89-.482.436-1.076.9-1.68 1.01-1.37.249-3.206.936-4.02-.26-.735-1.079 1.073-1.913 1.738-2.858 1.608-2.284 3.803-3.933 6.146-5.398 3.01.012 3.445-2.059 2.955-4.232-.37-1.644-1.036-3.84-3.712-2.455-.86-.132-1.765-.138-2.571-.423-1.972-.697-2.902.321-3.424 1.966-.328 1.031-.755 2.153-.646 3.18.595 5.6-2.632 8.982-6.666 11.951-1.684-1.33-4.029-.858-5.765-2.026.04-.281-.001-.605.106-.665 4.945-2.778 5.29-7.121 4.091-11.982-.37-1.506-.651-3.013-.521-4.572l.122-.121z"/></svg></svg><svg width="17" height="9" xmlns="http://www.w3.org/2000/svg" xmlns:xlink="http://www.w3.org/1999/xlink" xmlns:svgjs="http://svgjs.com/svgjs" viewBox="0 0.119 17 8.762" fill="#fdfdfd" x="733" y="10011"><svg xmlns="http://www.w3.org/2000/svg" xmlns:xlink="http://www.w3.org/1999/xlink" width="17" height="9" viewBox="0.192 0.523 16.126 8.312"><path paint-order="stroke fill markers" fill-rule="evenodd" d="M.192.523C5.578.646 10.228 2.906 14.935 4.93c1.098.471 1.863 1.657 1.03 3.03-.967 1.597-2.107.632-3.099.055C8.625 5.546 4.414 3.024.192.524z"/></svg></svg><svg width="11" height="9" xmlns="http://www.w3.org/2000/svg" xmlns:xlink="http://www.w3.org/1999/xlink" xmlns:svgjs="http://svgjs.com/svgjs" viewBox="0 0.178 11 8.644" fill="#b7b7b7" x="784" y="10004"><svg xmlns="http://www.w3.org/2000/svg" xmlns:xlink="http://www.w3.org/1999/xlink" width="11" height="9" viewBox="0.092 0.54 10.128 7.959"><path paint-order="stroke fill markers" fill-rule="evenodd" d="M10.22 1.995C7.67 4.555 4.896 6.821 1.676 8.5 1.19 7.385.599 6.302.246 5.147-.507 2.692 1.611.164 4.1.587c2.06.35 4.08.93 6.119 1.408z"/></svg></svg><svg width="6" height="8" xmlns="http://www.w3.org/2000/svg" xmlns:xlink="http://www.w3.org/1999/xlink" xmlns:svgjs="http://svgjs.com/svgjs" viewBox="0 0.104 6 7.791" fill="#fdfdfd" x="762" y="10063"><svg xmlns="http://www.w3.org/2000/svg" xmlns:xlink="http://www.w3.org/1999/xlink" width="6" height="8" viewBox="0.759 0.684 4.891 6.351"><path paint-order="stroke fill markers" fill-rule="evenodd" d="M.906 7.035c.061-2.295-.772-4.097.961-5.613 1.131-.99 2.226-.966 3.176-.033 1.159 1.137.492 2.347-.618 2.9C3.23 4.882 2.6 6.093.905 7.034z"/></svg></svg><svg width="5" height="8" xmlns="http://www.w3.org/2000/svg" xmlns:xlink="http://www.w3.org/1999/xlink" xmlns:svgjs="http://svgjs.com/svgjs" viewBox="0.32 0 4.36 8" fill="#fdfdfd" x="767" y="10061"><svg xmlns="http://www.w3.org/2000/svg" xmlns:xlink="http://www.w3.org/1999/xlink" width="5" height="8" viewBox="0.459 0.829 3.884 7.125"><path paint-order="stroke fill markers" fill-rule="evenodd" d="M.46 1.267c2.675-1.385 3.34.81 3.711 2.456.49 2.172.056 4.243-2.955 4.23C3.28 4.533 3.126 3.167.459 1.268z"/></svg></svg><svg width="9" height="4" xmlns="http://www.w3.org/2000/svg" xmlns:xlink="http://www.w3.org/1999/xlink" xmlns:svgjs="http://svgjs.com/svgjs" viewBox="0 0.052 9 3.897" fill="#b7b7b7" x="774" y="10011"><svg xmlns="http://www.w3.org/2000/svg" xmlns:xlink="http://www.w3.org/1999/xlink" width="9" height="4" viewBox="0.777 0.383 7.296 3.159"><path paint-order="stroke fill markers" fill-rule="evenodd" d="M8.074 3.36c-2.41-.525-4.935.951-7.297-.419.613-1.091 1.952-.835 2.784-1.489C6.245-.658 7.487.554 8.074 3.36z"/></svg></svg><svg width="3" height="3" xmlns="http://www.w3.org/2000/svg" xmlns:xlink="http://www.w3.org/1999/xlink" xmlns:svgjs="http://svgjs.com/svgjs" viewBox="0.062 0 2.876 3" fill="#b7b7b7" x="768" y="10012"><svg xmlns="http://www.w3.org/2000/svg" xmlns:xlink="http://www.w3.org/1999/xlink" width="3" height="3" viewBox="0.988 0.985 1.282 1.337"><path paint-order="stroke fill markers" fill-rule="evenodd" d="M2.27 2.136c-.48.136-1.105.452-1.262-.276-.138-.642.444-.842 1.015-.875l.246 1.15z"/></svg></svg><svg width="2" height="2" xmlns="http://www.w3.org/2000/svg" xmlns:xlink="http://www.w3.org/1999/xlink" xmlns:svgjs="http://svgjs.com/svgjs" viewBox="0 0.739 2 0.522" fill="#b7b7b7" x="771" y="10013"><svg xmlns="http://www.w3.org/2000/svg" xmlns:xlink="http://www.w3.org/1999/xlink" width="2" height="2" viewBox="0.326 0.971 0.847 0.221"><path paint-order="stroke fill markers" fill-rule="evenodd" d="M1.173 1.192L.326 1.19c.283-.277.565-.308.847.002z"/></svg></svg><svg width="1" height="2" xmlns="http://www.w3.org/2000/svg" xmlns:xlink="http://www.w3.org/1999/xlink" xmlns:svgjs="http://svgjs.com/svgjs" viewBox="0.04 0 0.92 2" fill="#b7b7b7" x="798" y="10014"><svg xmlns="http://www.w3.org/2000/svg" xmlns:xlink="http://www.w3.org/1999/xlink" width="1" height="2" viewBox="0.101 0.337 0.372 0.81"><path paint-order="stroke fill markers" fill-rule="evenodd" d="M.473 1.147L.101.337l.372.81z"/></svg></svg><svg width="18" height="21" xmlns="http://www.w3.org/2000/svg" xmlns:xlink="http://www.w3.org/1999/xlink" xmlns:svgjs="http://svgjs.com/svgjs" viewBox="0.487 0 17.026 21" fill="#fff" x="754" y="10019"><svg xmlns="http://www.w3.org/2000/svg" xmlns:xlink="http://www.w3.org/1999/xlink" width="18" height="21" viewBox="0.554 0.009 16.951 20.907"><path paint-order="stroke fill markers" fill-rule="evenodd" d="M.554 14.134c1.898 3.577 3.055 1.836 4.387-.166 3.091-4.647 6.27-9.235 9.49-13.959.643 1.154.04 1.967-.301 2.66-.74 1.509-.129 2.435 1.013 3.258 2.83 2.04 3.149 4.925.784 7.41-3.263 3.432-7.723 5.002-11.69 7.304-1.626.945-2.917-.725-3.344-2.285-.367-1.337-.244-2.809-.339-4.222zm7.06 1.998c2.992-.416 4.838-2.512 6.517-4.687 1.049-1.358.567-2.83-.862-3.682-1.581-.942-1.868.783-2.27 1.555-1.168 2.237-2.924 4.16-3.596 6.657l-.38.39c.08.054.213.17.233.153.133-.114.24-.255.357-.386z"/></svg></svg><svg width="9" height="12" xmlns="http://www.w3.org/2000/svg" xmlns:xlink="http://www.w3.org/1999/xlink" xmlns:svgjs="http://svgjs.com/svgjs" viewBox="0.228 0 8.545 12" fill="#fff" x="768" y="9997"><svg xmlns="http://www.w3.org/2000/svg" xmlns:xlink="http://www.w3.org/1999/xlink" width="9" height="12" viewBox="0.687 0.113 7.765 10.904"><path paint-order="stroke fill markers" fill-rule="evenodd" d="M.687 11.017L8.035.113C9.515 4.68 7.046 8.62.687 11.017z"/></svg></svg><svg width="6" height="9" xmlns="http://www.w3.org/2000/svg" xmlns:xlink="http://www.w3.org/1999/xlink" xmlns:svgjs="http://svgjs.com/svgjs" viewBox="0.256 0 5.488 9" fill="#fff" x="745" y="10064"><svg xmlns="http://www.w3.org/2000/svg" xmlns:xlink="http://www.w3.org/1999/xlink" width="6" height="9" viewBox="0.403 0.833 4.93 8.086"><path paint-order="stroke fill markers" fill-rule="evenodd" d="M3.394.833c.7 1.102.515 2.102 1.396 2.953 1.436 1.386-.2 4.822-2.263 5.097C.397 9.167.237 7.726.498 6.146c.067-.407.364-.78.574-1.16C1.8 3.677 2.534 2.37 3.394.834z"/></svg></svg><svg width="2" height="1" xmlns="http://www.w3.org/2000/svg" xmlns:xlink="http://www.w3.org/1999/xlink" xmlns:svgjs="http://svgjs.com/svgjs" viewBox="0.541 0 0.918 1" fill="#b7b7b7" x="751" y="10059"><svg xmlns="http://www.w3.org/2000/svg" xmlns:xlink="http://www.w3.org/1999/xlink" width="2" height="1" viewBox="0.806 0.283 0.378 0.412"><path paint-order="stroke fill markers" fill-rule="evenodd" d="M1.063.696L.806.283l.378.293-.121.12z"/></svg></svg><svg width="2" height="8" xmlns="http://www.w3.org/2000/svg" xmlns:xlink="http://www.w3.org/1999/xlink" xmlns:svgjs="http://svgjs.com/svgjs" viewBox="0.122 0 1.756 8" fill="#fff" x="817" y="10048"><svg xmlns="http://www.w3.org/2000/svg" xmlns:xlink="http://www.w3.org/1999/xlink" width="2" height="8" viewBox="0.415 0.478 1.498 6.824"><path paint-order="stroke fill markers" fill-rule="evenodd" d="M.594.478l1.32 6.825C.464 5.257.169 2.948.594.478z"/></svg></svg><svg width="2" height="5" xmlns="http://www.w3.org/2000/svg" xmlns:xlink="http://www.w3.org/1999/xlink" xmlns:svgjs="http://svgjs.com/svgjs" viewBox="0.462 0 1.075 5" fill="#fff" x="821" y="10062"><svg xmlns="http://www.w3.org/2000/svg" xmlns:xlink="http://www.w3.org/1999/xlink" width="2" height="5" viewBox="0.209 0.514 0.81 3.767"><path paint-order="stroke fill markers" fill-rule="evenodd" d="M1.018 4.28C-.392 3.492.39 2.446.778.515l.241 3.763-.001.004z"/></svg></svg><svg width="1" height="2" xmlns="http://www.w3.org/2000/svg" xmlns:xlink="http://www.w3.org/1999/xlink" xmlns:svgjs="http://svgjs.com/svgjs" viewBox="0.064 0 0.871 2" fill="#fdfdfd" x="822" y="10066"><svg xmlns="http://www.w3.org/2000/svg" xmlns:xlink="http://www.w3.org/1999/xlink" width="1" height="2" viewBox="0.018 0.277 0.655 1.505"><path paint-order="stroke fill markers" fill-rule="evenodd" d="M.02.277c.602.204.745.654.603 1.212-.03.119-.23.196-.35.293L.018.28.019.277z"/></svg></svg><svg width="8" height="10" xmlns="http://www.w3.org/2000/svg" xmlns:xlink="http://www.w3.org/1999/xlink" xmlns:svgjs="http://svgjs.com/svgjs" viewBox="0 0.26 8 9.48" fill="#b7b7b7" x="761" y="10026"><svg xmlns="http://www.w3.org/2000/svg" xmlns:xlink="http://www.w3.org/1999/xlink" width="8" height="10" viewBox="0.403 0.489 7.293 8.643"><path paint-order="stroke fill markers" fill-rule="evenodd" d="M.403 8.976c.672-2.498 2.428-4.42 3.595-6.657.403-.773.69-2.498 2.27-1.556 1.43.851 1.912 2.324.863 3.683C5.452 6.62 3.606 8.716.613 9.132l-.21-.156z"/></svg></svg><svg width="1" height="2" xmlns="http://www.w3.org/2000/svg" xmlns:xlink="http://www.w3.org/1999/xlink" xmlns:svgjs="http://svgjs.com/svgjs" viewBox="0 0.539 1 0.922" fill="#b7b7b7" x="761" y="10034"><svg xmlns="http://www.w3.org/2000/svg" width="1" height="2" viewBox="0.023 0.976 0.59 0.544"><path paint-order="stroke fill markers" fill-rule="evenodd" d="M.613 1.132c-.116.132-.224.273-.357.387-.02.017-.152-.1-.233-.154l.38-.389.21.156z"/></svg></svg></svg>