<svg width="142" height="122" xmlns="http://www.w3.org/2000/svg" xmlns:xlink="http://www.w3.org/1999/xlink" xmlns:svgjs="http://svgjs.com/svgjs" viewBox="0 0.635 142 120.73" fill="#fff"><svg xmlns="http://www.w3.org/2000/svg" width="142" height="122" viewBox="0 0.999 141.5 120.305"><path paint-order="stroke fill markers" fill-rule="evenodd" d="M0 66.39V56.154c.164-.909.056-1.833.175-2.752.194-1.483.217-2.988.412-4.472.29-2.216.626-4.424 1.03-6.624a84.95 84.95 0 0 1 3.063-11.83c1.415-4.197 3.179-8.25 5.408-12.087 1.834-3.158 3.943-6.119 6.46-8.769 2.047-2.156 4.323-4.04 6.926-5.509 3.153-1.78 6.493-2.877 10.147-2.925.997-.014 1.992-.122 2.988-.187h11.2c.157.025.314.07.472.07 1.501-.003 2.994.134 4.491.229 2.313.145 4.616.371 6.92.605 3.039.31 6.06.737 9.078 1.203 4.8.74 9.555 1.7 14.267 2.865 5.574 1.379 11.071 3.014 16.44 5.068 4.58 1.753 9.076 3.686 13.413 5.991 3.82 2.03 7.507 4.264 11.028 6.78 3.334 2.383 6.418 5.032 9.141 8.102 2.15 2.424 3.959 5.065 5.329 8.006 1.01 2.169 1.723 4.427 2.203 6.769.413 2.016.694 4.05.909 6.095v5.78c-.117.97-.228 1.943-.438 2.9-1.157 5.274-4.072 9.141-9.088 11.309-4.005 1.73-8.113 3.184-12.273 4.493-1.62.51-3.262.94-4.943 1.211a158.92 158.92 0 0 1-9.254 1.23c-2.698.271-5.39.616-8.083.936-2.378.283-4.762.522-7.13.878-3.333.499-6.664 1.02-9.982 1.625-4.875.89-9.707 1.962-14.52 3.131-.422.102-.605.31-.71.693-.322 1.155-.63 2.315-.999 3.455-1.72 5.305-3.866 10.42-6.838 15.163-2.535 4.046-5.497 7.712-9.293 10.658-2.654 2.061-5.566 3.605-8.825 4.46-1.336.352-2.707.487-4.08.6h-1.927c-.137-.024-.274-.063-.412-.069-2.576-.101-4.998-.807-7.325-1.874-4.723-2.163-8.372-5.63-11.53-9.652-2.731-3.477-4.852-7.326-6.668-11.352C5.35 94.3 3.949 90.094 2.85 85.787a86.252 86.252 0 0 1-1.726-8.506A113.528 113.528 0 0 1 .169 68.9C.106 68.064.164 67.22 0 66.39zm24.14 18.807c-.13 2.342.168 4.902.672 7.437.61 3.075 1.567 6.031 3.115 8.78 1.323 2.348 2.95 4.413 5.269 5.87 3.157 1.987 7.006 1.756 9.98-.39 2.195-1.585 3.753-3.697 4.985-6.062 2.503-4.804 3.402-9.995 3.557-15.34.062-2.095-.144-4.187-.44-6.27-.53-3.737-1.576-7.294-3.384-10.621-1.17-2.152-2.621-4.063-4.618-5.516-2.011-1.464-4.24-2.123-6.728-1.73-2.859.45-4.959 2.12-6.714 4.284-1.731 2.137-2.945 4.57-3.826 7.163-1.335 3.935-1.986 7.982-1.869 12.395zm40.353-54.646c-.908-.005-.926 0-.665.785a81.057 81.057 0 0 1 2.317 8.56c.551 2.558 1 5.134 1.331 7.73.09.7.213.844.896.765.97-.114 1.938-.259 2.911-.338a494.27 494.27 0 0 1 7.945-.607c2.292-.15 4.588-.282 6.885-.358 2.158-.07 4.312-.19 6.464-.362 1.783-.143 3.524-.528 5.229-1.002 3.037-.841 5.03-3.068 6.808-5.518.196-.27.115-.487-.113-.679-.367-.308-.725-.628-1.107-.917-2.08-1.58-4.402-2.658-6.9-3.405-3.183-.951-6.42-1.656-9.682-2.26-2.199-.407-4.41-.732-6.624-1.033a119.294 119.294 0 0 0-4.52-.513c-1.53-.15-3.068-.227-4.596-.392-2.206-.236-4.426-.25-6.58-.456z"/></svg></svg>