<svg xmlns="http://www.w3.org/2000/svg" xmlns:xlink="http://www.w3.org/1999/xlink" width="172.851" height="131.77" viewBox="0 0 172.851 131.77">
  <defs>
    <linearGradient id="linear-gradient" x1="0.5" x2="0.5" y2="1" gradientUnits="objectBoundingBox">
      <stop offset="0" stop-color="#9b2def"/>
      <stop offset="1" stop-color="#d13887"/>
    </linearGradient>
  </defs>
  <path id="Path_995" data-name="Path 995" d="M656.725,249.36a20.22,20.22,0,0,0-20.218,20.282H587.029a5.051,5.051,0,0,0-3.746,8.462,10.123,10.123,0,1,1-15.115,0,5.081,5.081,0,0,0-3.747-8.462H544.979a15.162,15.162,0,0,0-15.18,15.179v60.846a15.162,15.162,0,0,0,15.18,15.179h10.464a20.25,20.25,0,1,0,40.5,0h91.529a15.162,15.162,0,0,0,15.179-15.179V284.822a15.162,15.162,0,0,0-15.179-15.179H677.008A20.276,20.276,0,0,0,656.725,249.36Zm-45.538,30.423v21.122a5.043,5.043,0,0,0,5.038,5.038,4.817,4.817,0,0,0,1.679-.258,10.5,10.5,0,0,1,3.359-.581,10.141,10.141,0,1,1,0,20.282,11.594,11.594,0,0,1-3.23-.517,5.383,5.383,0,0,0-.969-.258,3.678,3.678,0,0,0-.84-.065,5.034,5.034,0,0,0-5.038,5.167v21.057H590.065a5.018,5.018,0,0,0-4.78,6.718,10.135,10.135,0,1,1-19.12,0,5.044,5.044,0,0,0-4.78-6.718H544.979a5.1,5.1,0,0,1-5.038-5.1V284.822a5.045,5.045,0,0,1,5.038-5.038h11.11a20.249,20.249,0,1,0,39.208,0ZM656.725,259.5a10.113,10.113,0,0,1,9.56,13.5,5.1,5.1,0,0,0,4.78,6.782h16.407a5.045,5.045,0,0,1,5.038,5.038v60.846a5.1,5.1,0,0,1-5.038,5.1H621.328V335.527a20.282,20.282,0,0,0,0-40.564V279.783H642.45A5.059,5.059,0,0,0,647.165,273,10.14,10.14,0,0,1,656.725,259.5Z" transform="translate(-529.8 -249.36)" fill-rule="evenodd" fill="url(#linear-gradient)"/>
</svg>
