<svg xmlns="http://www.w3.org/2000/svg" xmlns:xlink="http://www.w3.org/1999/xlink" width="125.4" height="144" viewBox="0 0 125.4 144">
  <defs>
    <linearGradient id="linear-gradient" x1="0.5" x2="0.5" y2="1" gradientUnits="objectBoundingBox">
      <stop offset="0" stop-color="#d13887"/>
      <stop offset="1" stop-color="#9b2def"/>
    </linearGradient>
  </defs>
  <path id="Path_997" data-name="Path 997" d="M435.07,121.44a4.294,4.294,0,0,0-2.9,1.15c-11.5,8.25-21.15,9.65-26.9,9.65-8.2,0-18.6-3.55-25.8-8.95a3.818,3.818,0,0,0-2.7-1.05,4.873,4.873,0,0,0-3,1.05c-7.15,5.4-16.85,8.95-25.45,8.95-8.95,0-17.9-3.55-26.85-9.65a4.744,4.744,0,0,0-2.9-1,4.7,4.7,0,0,0-4.65,4.6v54.75c0,38.3,23.65,72.3,61.25,84.15.4,0,.75.35,1.45.35a2.893,2.893,0,0,0,1.45-.35,88.315,88.315,0,0,0,61.25-84.15V126.19C439.32,123.24,437.27,121.44,435.07,121.44Zm-58.45,11.9c8.25,5.35,19.35,8.95,28.3,8.95,6.1,0,14.7-1.45,25.1-7.15v45.8c-.35,33.65-21.15,63.75-53.4,74.8a79.3,79.3,0,0,1-53.35-74.8v-45.8c7.85,4.3,16.45,7.15,25.05,7.15C357.62,142.29,368.02,139.04,376.62,133.34Z" transform="translate(-313.92 -121.44)" fill-rule="evenodd" fill="url(#linear-gradient)"/>
</svg>
