<svg xmlns="http://www.w3.org/2000/svg" xmlns:xlink="http://www.w3.org/1999/xlink" width="157.5" height="156.148" viewBox="0 0 157.5 156.148">
  <defs>
    <linearGradient id="linear-gradient" x1="0.5" x2="0.5" y2="1" gradientUnits="objectBoundingBox">
      <stop offset="0" stop-color="#d13887"/>
      <stop offset="1" stop-color="#9b2def"/>
    </linearGradient>
  </defs>
  <path id="Path_1006" data-name="Path 1006" d="M725.732,262.92a22.844,22.844,0,0,0-16,6.985,14.313,14.313,0,0,0-2.084,2.535c-.451-.845-1.69-1.3-2.084-2.535a22.581,22.581,0,0,0-16.111-6.816,23.547,23.547,0,0,0-5.182.563c-7.548,1.69-12.956,6.7-16.336,14.2-4.563.451-9.182,2.929-12.956,6.253a22.812,22.812,0,0,0-6.253,21.349c-4.563.394-8.788,3.323-12.505,6.253a23.1,23.1,0,0,0-6.7,16.28,20.634,20.634,0,0,0,4.619,13.35,24.989,24.989,0,0,0-4.619,13.8,23.094,23.094,0,0,0,6.7,16.279,21.32,21.32,0,0,0,12.505,5.858,21.758,21.758,0,0,0-.394,5.013c0,12.111,8.788,21.349,20.448,22.983,3.38,8.337,11.323,13.8,21.35,13.8a22.759,22.759,0,0,0,18.363-9.182,21.953,21.953,0,0,0,17.969,9.182,23.606,23.606,0,0,0,21.688-13.8,23,23,0,0,0,20.054-22.983,21.745,21.745,0,0,0-.395-5.013c4.563-.394,8.788-2.929,12.505-5.858a23.56,23.56,0,0,0,6.7-16.279c0-5.408-1.239-10.027-4.619-13.8a25.858,25.858,0,0,0,3.775-13.35,23.459,23.459,0,0,0-7.1-16.28,17.953,17.953,0,0,0-12.505-6.253,23.313,23.313,0,0,0-6.309-21.349,20.332,20.332,0,0,0-12.956-6.253,22.377,22.377,0,0,0-16.28-14.2A19.055,19.055,0,0,0,725.732,262.92Zm-36.671,9.633a13.191,13.191,0,0,1,9.8,4.056,14.378,14.378,0,0,1,4.168,10.027V333a13.633,13.633,0,0,1-13.745,13.8,4.591,4.591,0,1,0,0,9.182,21.739,21.739,0,0,0,13.745-4.619v45.966a13.885,13.885,0,0,1-13.745,13.8,13.562,13.562,0,0,1-13.407-13.8,4.617,4.617,0,0,0-4.563-4.563,5.8,5.8,0,0,0-5.013,3.774,14.828,14.828,0,0,1-9.182-13.407,19.087,19.087,0,0,1,.789-5.013,31.414,31.414,0,0,0,10.477-5.858,5.623,5.623,0,0,0,2.084-2.479h.845a13.451,13.451,0,0,1,13.35,13.35,4.74,4.74,0,0,0,4.619,5.013,4.853,4.853,0,0,0,5.013-5.013,22.2,22.2,0,0,0-19.659-22.138,10.494,10.494,0,0,0,.845-5.013,21.84,21.84,0,0,0-7.1-15.885,3.677,3.677,0,0,0-2.985-1.239,4.551,4.551,0,0,0-3.267,1.239c-1.3,1.239-1.3,4.619,0,5.858a13.754,13.754,0,0,1,4.168,10.027A13.068,13.068,0,0,1,662.135,366a14,14,0,0,1-23.828-10.027,20.835,20.835,0,0,1,2.084-7.943,18.554,18.554,0,0,0,11.266,3.324,4.731,4.731,0,0,0,5.013-4.563,4.822,4.822,0,0,0-5.013-5.013,12.585,12.585,0,0,1-9.576-4.169,12.785,12.785,0,0,1-4.168-9.633,12.954,12.954,0,0,1,4.168-10.027,14.418,14.418,0,0,1,9.576-4.168,14.626,14.626,0,0,1,10.027,4.168,4.379,4.379,0,0,0,3.154,1.239,4.25,4.25,0,0,0,3.1-1.239,4.49,4.49,0,0,0,0-6.253c-2.929-3.323-6.253-4.619-10.421-5.858a13.75,13.75,0,0,1,3.324-15.04,13.671,13.671,0,0,1,19.659,0,4.563,4.563,0,0,0,6.253,0,4.489,4.489,0,0,0,0-6.253,25.852,25.852,0,0,0-9.182-5.858,13.582,13.582,0,0,1,8.337-5.858A20.487,20.487,0,0,1,689.062,272.552Zm37.347-.845a23.456,23.456,0,0,1,3.38.282,20.9,20.9,0,0,1,8.337,5.858,17.579,17.579,0,0,0-9.576,5.858,4.019,4.019,0,0,0,0,5.858,4.563,4.563,0,0,0,6.253,0,14.481,14.481,0,0,1,10.027-4.168,15.246,15.246,0,0,1,10.027,4.168A14.236,14.236,0,0,1,757.785,305c-3.774.845-7.1,2.929-10.477,5.464-1.633,1.634-1.633,5.013,0,6.253a4.635,4.635,0,0,0,6.309,0,14.378,14.378,0,0,1,10.027-4.168,15.359,15.359,0,0,1,10.027,4.168c2.479,2.929,4.168,6.253,4.168,10.027a14.734,14.734,0,0,1-4.168,10.027c-2.929,2.479-6.309,4.168-10.027,4.168a4.64,4.64,0,0,0-4.619,4.619,4.74,4.74,0,0,0,4.619,5.013,21.012,21.012,0,0,0,11.266-3.38c1.69,2.084,2.084,4.619,2.084,7.943,0,4.168-1.239,7.943-4.168,10.477a13.789,13.789,0,0,1-9.633,4.169,14.232,14.232,0,0,1-14.2-14.2,14.628,14.628,0,0,1,4.168-10.027,4.559,4.559,0,0,0,0-6.309,4.562,4.562,0,0,0-6.253,0,23.13,23.13,0,0,0-6.7,16.336,15.7,15.7,0,0,0,.451,4.563c-10.872,1.69-19.209,11.717-19.209,22.589a4.591,4.591,0,0,0,9.182,0c0-7.943,6.253-13.407,13.745-13.407h.451c.394.845,1.69,1.3,2.084,2.535a23.825,23.825,0,0,0,10.422,5.858,16.655,16.655,0,0,1,.845,5.013A13.038,13.038,0,0,1,749,395.691c-.394-2.084-2.084-3.38-4.619-3.38a4.774,4.774,0,0,0-5.013,4.619,13.163,13.163,0,0,1-13.351,13.35c-7.492,0-13.745-6.253-13.745-13.35V350.965a23.579,23.579,0,0,0,13.745,4.619,4.619,4.619,0,0,0,0-9.238A13.585,13.585,0,0,1,712.27,332.6V285.79a14.481,14.481,0,0,1,4.168-10.027A13.515,13.515,0,0,1,726.408,271.708Z" transform="translate(-629.52 -262.92)" fill-rule="evenodd" fill="url(#linear-gradient)"/>
</svg>
