<svg xmlns="http://www.w3.org/2000/svg" xmlns:xlink="http://www.w3.org/1999/xlink" width="160" height="158.073" viewBox="0 0 160 158.073">
  <defs>
    <linearGradient id="linear-gradient" x1="0.5" x2="0.5" y2="1" gradientUnits="objectBoundingBox">
      <stop offset="0" stop-color="#9b2def"/>
      <stop offset="1" stop-color="#d13887"/>
    </linearGradient>
  </defs>
  <g id="Group_1423" data-name="Group 1423" transform="translate(-172.028 -267.72)">
    <path id="Path_998" data-name="Path 998" d="M187.666,267.72a15.638,15.638,0,0,0-15.629,15.629v115.6a25.692,25.692,0,0,0,26.011,26.848h104.88a26.719,26.719,0,0,0,26.792-26.4,6.01,6.01,0,0,0-5.582-5.638h-37.23V283.349c0-8.428-6.81-15.629-15.238-15.629ZM317.72,404.974a15.73,15.73,0,0,1-15.182,10.382,16.052,16.052,0,0,1-14.847-10.382ZM271.671,278.939a5.718,5.718,0,0,1,5.638,5.582V399.783c0,5.972,1.619,11.61,5.191,15.573h-84.06c-8.373,0-15.964-6.754-15.964-15.573V284.521h-.391a5.46,5.46,0,0,1,5.582-5.582Z" transform="translate(0 0)" fill-rule="evenodd" fill="url(#linear-gradient)"/>
    <path id="Path_999" data-name="Path 999" d="M181.262,271.56a5.534,5.534,0,0,0-5.582,5.749c0,2.512,2.4,4.968,5.582,4.968h62.515c3.182,0,5.582-2.456,5.582-4.968a5.534,5.534,0,0,0-5.582-5.749Z" transform="translate(16.731 17.594)" fill-rule="evenodd" fill="url(#linear-gradient)"/>
    <path id="Path_1000" data-name="Path 1000" d="M181.262,277.2c-3.182,0-5.582,2.456-5.582,4.968a5.534,5.534,0,0,0,5.582,5.749h62.515a5.534,5.534,0,0,0,5.582-5.749c0-2.9-2.4-4.968-5.582-4.968Z" transform="translate(16.731 43.434)" fill-rule="evenodd" fill="url(#linear-gradient)"/>
    <path id="Path_1001" data-name="Path 1001" d="M181.262,282.72a5.767,5.767,0,0,0-5.582,5.693,5.52,5.52,0,0,0,5.582,5.693h62.515a5.52,5.52,0,0,0,5.582-5.693,5.767,5.767,0,0,0-5.582-5.693Z" transform="translate(16.731 68.726)" fill-rule="evenodd" fill="url(#linear-gradient)"/>
    <path id="Path_1002" data-name="Path 1002" d="M181.262,288.48a5.345,5.345,0,0,0-5.582,5.358,5.594,5.594,0,0,0,5.582,5.358h62.515a5.594,5.594,0,0,0,5.582-5.358,5.345,5.345,0,0,0-5.582-5.358Z" transform="translate(16.731 95.116)" fill-rule="evenodd" fill="url(#linear-gradient)"/>
    <path id="Path_1003" data-name="Path 1003" d="M206.911,267.84c-7.2,0-12.391,5.247-12.391,12.057V356.98a4.539,4.539,0,0,0,.391,2.4l12.447,24.894c1.172,2.009,2.4,2.791,4.354,2.791,2.009,0,4.019-.781,4.8-2.791l12-24.894c.447-.391.447-1.228.447-2.4V279.9a11.536,11.536,0,0,0-11.61-12.057Zm8.428,94.721-3.628,7.647-3.963-7.647Zm3.572-63.408v52.97H204.958v-52.97Zm-1.563-21.266c1.172,0,1.563.781,1.563,2.009v8.819H204.958V279.9a1.861,1.861,0,0,1,1.954-2.009Z" transform="translate(103.05 0.55)" fill-rule="evenodd" fill="url(#linear-gradient)"/>
  </g>
</svg>
 