<svg xmlns="http://www.w3.org/2000/svg" xmlns:xlink="http://www.w3.org/1999/xlink" width="150" height="148.785" viewBox="0 0 150 148.785">
  <defs>
    <linearGradient id="linear-gradient" x1="0.5" x2="0.5" y2="1" gradientUnits="objectBoundingBox">
      <stop offset="0" stop-color="#d13887"/>
      <stop offset="1" stop-color="#9b2def"/>
    </linearGradient>
  </defs>
  <path id="Path_996" data-name="Path 996" d="M101.518,299.4a4.6,4.6,0,0,0-4.444,4.808v5.213H82.635a3.98,3.98,0,0,0-.774-.051c-8.842,0-14.778,6.175-14.778,14.07V327.9c0,20.725,15.922,37.381,36.293,39.238a42.747,42.747,0,0,0,19.257,15.907c1.857.739,2.6,2.217,2.6,4.438,0,7.04-2.6,16.3-7.04,21.839h-7.409a4.455,4.455,0,0,0-4.444,3.335L96.71,441.9a4.7,4.7,0,0,0,4.444,6.286h81.119a4.707,4.707,0,0,0,4.444-6.286l-9.641-29.243a4.442,4.442,0,0,0-4.444-3.335h-7.4c-4.444-5.542-7.03-14.8-7.03-21.839a4.759,4.759,0,0,1,2.586-4.064,49.289,49.289,0,0,0,19.268-15.543,39.036,39.036,0,0,0,33.692-24.06c3.34-8.518,3.34-14.434,3.34-19.971,0-7.592-6.336-14.475-13.862-14.475a2.362,2.362,0,0,0-.587.051H187.819v-5.213a4.991,4.991,0,0,0-5.183-4.808Zm67.788,119.542,6.665,19.622H108.193l6.291-19.622Zm8.148-110.281V342.7a33.7,33.7,0,0,1-20.376,31.1,14.909,14.909,0,0,0-8.513,13.321,87.041,87.041,0,0,0,1.108,12.217c1.113,2.961,2.6,6.66,3.7,9.985H130.037c3.7-7.025,4.823-15.163,4.823-21.839a14.9,14.9,0,0,0-8.523-13.321A36.035,36.035,0,0,1,111.9,361.58a33.224,33.224,0,0,1-5.562-18.878V308.662Zm24.814,9.97a4.6,4.6,0,0,1,4.444,4.808V327.9a29.884,29.884,0,0,1-21.854,28.878,42.816,42.816,0,0,0,2.6-13.7V318.632Zm-105.933,0v24.445a42.492,42.492,0,0,0,2.222,13.7,29.872,29.872,0,0,1-21.844-28.5V323.44c0-2.935,2.222-4.808,5.183-4.808Z" transform="translate(-67.082 -299.4)" fill-rule="evenodd" fill="url(#linear-gradient)"/>
</svg>
 