<svg xmlns="http://www.w3.org/2000/svg" xmlns:xlink="http://www.w3.org/1999/xlink" width="177" height="126.825" viewBox="0 0 177 126.825">
  <defs>
    <linearGradient id="linear-gradient" x1="0.5" x2="0.5" y2="1" gradientUnits="objectBoundingBox">
      <stop offset="0" stop-color="#9b2def"/>
      <stop offset="1" stop-color="#d13887"/>
    </linearGradient>
  </defs>
  <g id="Group_1424" data-name="Group 1424" transform="translate(-206.4 -306.362)">
    <path id="Path_1004" data-name="Path 1004" d="M223.547,306.362A17.2,17.2,0,0,0,206.4,323.54v92.482a17.2,17.2,0,0,0,17.147,17.165H365.762c9.71,0,17.639-7.928,17.639-17.165V323.54a17.879,17.879,0,0,0-17.639-17.178Zm147.93,34.792v75.3a5.98,5.98,0,0,1-6.146,6.164H222.686c-3.073,0-5.285-2.643-5.285-6.164v-75.3Zm-6.146-23.778a6.249,6.249,0,0,1,6.146,6.164V329.7H217.4V323.54c0-3.085,2.643-6.164,5.285-6.164Z" transform="translate(0 0)" fill-rule="evenodd" fill="url(#linear-gradient)"/>
    <path id="Path_1005" data-name="Path 1005" d="M242.436,313.8a29.571,29.571,0,0,0-29.316,29.279c0,16.4,13.337,29.721,29.316,29.721a29.864,29.864,0,0,0,17.762-6.22,27.426,27.426,0,0,0,17.27,6.22c15.979,0,29.316-13.318,29.316-29.721A29.571,29.571,0,0,0,277.467,313.8a25.789,25.789,0,0,0-17.27,6.207A28.076,28.076,0,0,0,242.436,313.8Zm35.031,12.433c9.342,0,17.331,7.529,17.331,16.846s-7.99,17.743-17.331,17.743a17.423,17.423,0,0,1-17.27-17.743C259.705,333.762,268.187,326.233,277.467,326.233Zm-35.031,0a21.861,21.861,0,0,1,10.2,2.661c-2.212,4.431-3.995,9.3-3.995,14.185,0,5.759,1.782,10.2,3.995,14.627a19.491,19.491,0,0,1-10.2,2.661,18.081,18.081,0,0,1-17.761-17.737C224.674,333.762,233.094,326.233,242.436,326.233Z" transform="translate(34.58 38.275)" fill-rule="evenodd" fill="url(#linear-gradient)"/>
  </g>
</svg>
