<svg width="196" height="54" xmlns="http://www.w3.org/2000/svg" xmlns:xlink="http://www.w3.org/1999/xlink" xmlns:svgjs="http://svgjs.com/svgjs" viewBox="86 22 196 54"><svg width="42" height="54" xmlns="http://www.w3.org/2000/svg" xmlns:xlink="http://www.w3.org/1999/xlink" xmlns:svgjs="http://svgjs.com/svgjs" viewBox="86 22 42 54" x="86" y="22"><svg width="26" height="11" xmlns="http://www.w3.org/2000/svg" xmlns:xlink="http://www.w3.org/1999/xlink" xmlns:svgjs="http://svgjs.com/svgjs" viewBox="0 0.269 26 10.463" fill="#0ff" x="100" y="53"><svg xmlns="http://www.w3.org/2000/svg" xmlns:xlink="http://www.w3.org/1999/xlink" width="26" height="11" viewBox="0.182 0.285 25.328 10.192"><path paint-order="stroke fill markers" fill-rule="evenodd" d="M22.755 2.178a1.416 1.416 0 0 0 2.754-.472 1.417 1.417 0 1 0-2.754-.473H.182V9.53h12.334a1.416 1.416 0 0 0 2.755-.471 1.417 1.417 0 1 0-2.755-.473H1.126V2.178h21.63z"/></svg></svg><svg width="28" height="23" xmlns="http://www.w3.org/2000/svg" xmlns:xlink="http://www.w3.org/1999/xlink" xmlns:svgjs="http://svgjs.com/svgjs" viewBox="0 0.546 28 21.909" fill="#0ff" x="100" y="29"><svg xmlns="http://www.w3.org/2000/svg" xmlns:xlink="http://www.w3.org/1999/xlink" width="28" height="23" viewBox="0.182 0.372 27.703 21.677"><path paint-order="stroke fill markers" fill-rule="evenodd" d="M26.465.372a1.42 1.42 0 0 0-1.421 1.42c0 .62.397 1.14.948 1.335V5.28H.182v8.554h23.236v5.46a1.416 1.416 0 0 0 .472 2.755 1.416 1.416 0 1 0 .472-2.754v-6.406H1.126V6.225h25.811V3.127a1.416 1.416 0 0 0-.472-2.755z"/></svg></svg><svg width="42" height="26" xmlns="http://www.w3.org/2000/svg" xmlns:xlink="http://www.w3.org/1999/xlink" xmlns:svgjs="http://svgjs.com/svgjs" viewBox="0.132 0 41.735 26" fill="#0ff" x="86" y="22"><svg xmlns="http://www.w3.org/2000/svg" xmlns:xlink="http://www.w3.org/1999/xlink" width="42" height="26" viewBox="0.567 0 41.318 25.74"><path paint-order="stroke fill markers" fill-rule="evenodd" d="M1.987 25.74a1.42 1.42 0 0 0 1.42-1.42c0-.619-.396-1.14-.947-1.334V.944h37.532v2.127a1.417 1.417 0 0 0 .473 2.755 1.417 1.417 0 1 0 .472-2.755V0H1.515v22.986a1.416 1.416 0 0 0-.948 1.334c0 .784.636 1.42 1.42 1.42z"/></svg></svg><svg width="15" height="25" xmlns="http://www.w3.org/2000/svg" xmlns:xlink="http://www.w3.org/1999/xlink" xmlns:svgjs="http://svgjs.com/svgjs" viewBox="0.389 0 14.221 25" fill="#0ff" x="86" y="51"><svg xmlns="http://www.w3.org/2000/svg" xmlns:xlink="http://www.w3.org/1999/xlink" width="15" height="25" viewBox="0.567 0.049 14.056 24.709"><path paint-order="stroke fill markers" fill-rule="evenodd" d="M13.202 21.917c-.618 0-1.139.397-1.334.948H2.46V2.803A1.417 1.417 0 0 0 1.987.05a1.417 1.417 0 1 0-.472 2.755V23.81h10.353a1.416 1.416 0 0 0 2.755-.472 1.42 1.42 0 0 0-1.42-1.421z"/></svg></svg><svg width="21" height="16" xmlns="http://www.w3.org/2000/svg" xmlns:xlink="http://www.w3.org/1999/xlink" xmlns:svgjs="http://svgjs.com/svgjs" viewBox="0 0.313 21 15.373" fill="#0ff" x="106" y="60"><svg xmlns="http://www.w3.org/2000/svg" xmlns:xlink="http://www.w3.org/1999/xlink" width="21" height="16" viewBox="0.281 0.637 20.656 15.121"><path paint-order="stroke fill markers" fill-rule="evenodd" d="M13.127.637a1.42 1.42 0 1 0 0 2.84c.618 0 1.139-.396 1.334-.948h5.531v11.336H3.036a1.418 1.418 0 0 0-2.755.473c0 .784.637 1.42 1.421 1.42.618 0 1.139-.396 1.334-.948h17.901V1.585h-6.476a1.417 1.417 0 0 0-1.334-.948z"/></svg></svg><svg width="14" height="19" xmlns="http://www.w3.org/2000/svg" xmlns:xlink="http://www.w3.org/1999/xlink" xmlns:svgjs="http://svgjs.com/svgjs" viewBox="0 0.132 14 18.735" fill="#0ff" x="95" y="29"><svg xmlns="http://www.w3.org/2000/svg" xmlns:xlink="http://www.w3.org/1999/xlink" width="14" height="19" viewBox="0.185 0.372 13.793 18.458"><path paint-order="stroke fill markers" fill-rule="evenodd" d="M11.223 17.882a1.417 1.417 0 0 0 2.755-.473 1.416 1.416 0 1 0-2.754-.472H2.077V3.127c.551-.195.948-.716.948-1.334a1.42 1.42 0 1 0-2.84 0c0 .618.396 1.139.947 1.334v14.755h10.09z"/></svg></svg><svg width="24" height="8" xmlns="http://www.w3.org/2000/svg" xmlns:xlink="http://www.w3.org/1999/xlink" xmlns:svgjs="http://svgjs.com/svgjs" viewBox="0 0.413 24 7.174" fill="#0ff" x="99" y="25"><svg xmlns="http://www.w3.org/2000/svg" xmlns:xlink="http://www.w3.org/1999/xlink" width="24" height="8" viewBox="0.386 0.099 23.503 7.025"><path paint-order="stroke fill markers" fill-rule="evenodd" d="M12.929 5.232a1.416 1.416 0 0 0-1.334-.948 1.42 1.42 0 1 0 0 2.84c.618 0 1.139-.396 1.334-.948h10.96V1.048H3.14a1.417 1.417 0 0 0-2.754.472 1.416 1.416 0 1 0 2.755.473h19.803v3.239H12.929z"/></svg></svg><svg width="4" height="47" xmlns="http://www.w3.org/2000/svg" xmlns:xlink="http://www.w3.org/1999/xlink" xmlns:svgjs="http://svgjs.com/svgjs" viewBox="0.563 0 2.873 47" fill="#0ff" x="90" y="25"><svg xmlns="http://www.w3.org/2000/svg" xmlns:xlink="http://www.w3.org/1999/xlink" width="4" height="47" viewBox="0.615 0.166 2.841 46.473"><path paint-order="stroke fill markers" fill-rule="evenodd" d="M3.456 1.587a1.42 1.42 0 1 0-2.841 0c0 .618.397 1.139.948 1.334v40.963a1.416 1.416 0 0 0 .473 2.755 1.417 1.417 0 1 0 .472-2.755V2.921c.551-.195.948-.716.948-1.334z"/></svg></svg><svg width="27" height="27" xmlns="http://www.w3.org/2000/svg" xmlns:xlink="http://www.w3.org/1999/xlink" xmlns:svgjs="http://svgjs.com/svgjs" viewBox="0 0.053 27 26.894" fill="#0ff" x="96" y="45"><svg xmlns="http://www.w3.org/2000/svg" xmlns:xlink="http://www.w3.org/1999/xlink" width="27" height="27" viewBox="0.133 0.06 26.755 26.65"><path paint-order="stroke fill markers" fill-rule="evenodd" d="M26.888 20.633H1.078V6.13h23.236V2.815A1.416 1.416 0 0 0 23.842.06a1.42 1.42 0 0 0-1.42 1.42c0 .62.396 1.14.948 1.335v2.37H.133v16.393h25.811v3.239H4.705a1.416 1.416 0 0 0-2.754.472 1.416 1.416 0 1 0 2.754.472h22.183v-5.128z"/></svg></svg></svg><svg width="146" height="31" xmlns="http://www.w3.org/2000/svg" xmlns:xlink="http://www.w3.org/1999/xlink" xmlns:svgjs="http://svgjs.com/svgjs" viewBox="136 33 146 31" x="136" y="33"><svg width="34" height="31" xmlns="http://www.w3.org/2000/svg" xmlns:xlink="http://www.w3.org/1999/xlink" xmlns:svgjs="http://svgjs.com/svgjs" viewBox="0 0.187 34 30.626" fill="#fff" x="136" y="33"><svg xmlns="http://www.w3.org/2000/svg" xmlns:xlink="http://www.w3.org/1999/xlink" width="34" height="31" viewBox="0.181 0.88 33.301 29.996"><path paint-order="stroke fill markers" fill-rule="evenodd" d="M.306 2.638a1.073 1.073 0 0 1-.125-.481c0-.251.097-.488.292-.711.321-.377.719-.566 1.193-.566h4.58c1.089 0 1.918.663 2.49 1.988l8.095 18.031 8.096-18.031C25.498 1.557 26.328.894 27.416.88h4.58c.489 0 .886.189 1.193.566.195.223.293.46.293.71 0 .154-.035.314-.105.482L21.33 28.743c-.656 1.422-1.653 2.134-2.992 2.134h-3.012c-1.339 0-2.336-.712-2.991-2.134L.306 2.638z"/></svg></svg><svg width="9" height="31" xmlns="http://www.w3.org/2000/svg" xmlns:xlink="http://www.w3.org/1999/xlink" xmlns:svgjs="http://svgjs.com/svgjs" viewBox="0.425 0 8.15 31" fill="#fff" x="172" y="33"><svg xmlns="http://www.w3.org/2000/svg" xmlns:xlink="http://www.w3.org/1999/xlink" width="9" height="31" viewBox="0.913 0.88 7.886 29.996"><path paint-order="stroke fill markers" fill-rule="evenodd" d="M.913 28.952V2.868c0-.544.195-1.01.585-1.402.39-.39.858-.586 1.402-.586h3.89c.572 0 1.05.196 1.433.586.384.391.576.858.576 1.402v26.043c0 .543-.2 1.007-.596 1.39a1.962 1.962 0 0 1-1.413.576H2.9a1.966 1.966 0 0 1-1.402-.554 1.811 1.811 0 0 1-.585-1.37z"/></svg></svg><svg width="32" height="31" xmlns="http://www.w3.org/2000/svg" xmlns:xlink="http://www.w3.org/1999/xlink" xmlns:svgjs="http://svgjs.com/svgjs" viewBox="0 0.101 32 30.797" fill="#fff" x="186" y="33"><svg xmlns="http://www.w3.org/2000/svg" xmlns:xlink="http://www.w3.org/1999/xlink" width="32" height="31" viewBox="0.781 0.88 31.168 29.996"><path paint-order="stroke fill markers" fill-rule="evenodd" d="M.781 28.911V2.868c0-.544.189-1.01.565-1.402.376-.39.837-.586 1.38-.586h17.258c3.193 0 5.811.858 7.855 2.573 2.042 1.716 3.064 4.03 3.064 6.945 0 4.058-2.629 6.603-7.886 7.635.823.321 1.593.851 2.312 1.59.718.74 1.537 1.82 2.457 3.243l3.807 6.045c.237.404.356.752.356 1.045a1 1 0 0 1-.063.356c-.14.377-.48.565-1.025.565h-5.02c-.544 0-1.13-.191-1.757-.575-.628-.384-1.109-.848-1.444-1.391l-3.555-5.565c-1.451-2.286-3.222-3.43-5.314-3.43H8.667v8.995c0 .543-.192 1.007-.575 1.39a1.893 1.893 0 0 1-1.391.576H2.768c-.543 0-1.01-.191-1.401-.575a1.877 1.877 0 0 1-.586-1.391zm7.886-14.915h8.911c1.423 0 2.685-.286 3.787-.858 1.101-.57 1.652-1.484 1.652-2.74 0-1.255-.547-2.168-1.642-2.74-1.095-.572-2.36-.857-3.797-.857h-8.91v7.195z"/></svg></svg><svg width="29" height="31" xmlns="http://www.w3.org/2000/svg" xmlns:xlink="http://www.w3.org/1999/xlink" xmlns:svgjs="http://svgjs.com/svgjs" viewBox="0 0.006 29 30.988" fill="#fff" x="221" y="33"><svg xmlns="http://www.w3.org/2000/svg" xmlns:xlink="http://www.w3.org/1999/xlink" width="29" height="31" viewBox="0.38 0.88 28.072 29.996"><path paint-order="stroke fill markers" fill-rule="evenodd" d="M.38 28.869V2.826c0-.544.195-1.004.585-1.38.39-.377.858-.566 1.402-.566h24.118a1.88 1.88 0 0 1 1.391.586c.384.391.576.858.576 1.402v1.966c0 .544-.192 1.007-.576 1.391a1.895 1.895 0 0 1-1.39.576H8.265v6.066h15.688c.544 0 1.008.192 1.391.577.384.385.576.85.576 1.396v1.973c0 .546-.192 1.011-.576 1.396a1.891 1.891 0 0 1-1.39.577H8.264v6.171h18.179c.543 0 1 .188 1.37.565.369.377.554.837.554 1.38v2.009a1.88 1.88 0 0 1-.586 1.39c-.39.385-.857.576-1.401.576H2.367c-.544 0-1.011-.191-1.402-.575-.39-.384-.585-.86-.585-1.433z"/></svg></svg><svg width="32" height="31" xmlns="http://www.w3.org/2000/svg" xmlns:xlink="http://www.w3.org/1999/xlink" xmlns:svgjs="http://svgjs.com/svgjs" viewBox="0 0.163 32 30.674" fill="#fff" x="250" y="33"><svg xmlns="http://www.w3.org/2000/svg" width="32" height="31" viewBox="0.707 0.88 31.293 29.996"><path paint-order="stroke fill markers" fill-rule="evenodd" d="M.79 30.27a1.439 1.439 0 0 1-.083-.334c0-.307.146-.649.439-1.025l10.543-13.45L1.752 2.867c-.292-.363-.439-.705-.439-1.025 0-.126.021-.244.063-.356.153-.404.516-.607 1.088-.607H6.96c1.394 0 2.615.663 3.66 1.988l5.732 7.28 5.732-7.28C23.117 1.557 24.337.894 25.745.88h4.498c.571 0 .934.203 1.088.607.042.112.062.23.062.356 0 .307-.146.648-.439 1.025L21.018 15.46 31.56 28.911c.293.362.44.704.44 1.025a.662.662 0 0 1-.084.334c-.153.405-.516.607-1.087.607h-4.456c-1.395 0-2.608-.656-3.64-1.966l-6.38-8.138-6.38 8.138c-1.032 1.31-2.245 1.966-3.64 1.966H1.879c-.572 0-.935-.202-1.088-.607z"/></svg></svg></svg></svg>