<svg width="30" height="30" xmlns="http://www.w3.org/2000/svg" xmlns:xlink="http://www.w3.org/1999/xlink" xmlns:svgjs="http://svgjs.com/svgjs" viewBox="0 0 29.999 30" fill="#fff"><svg xmlns="http://www.w3.org/2000/svg" width="30" height="30" viewBox="0 -0.001 30 30.001"><path paint-order="stroke fill markers" fill-rule="evenodd" d="M15 0C6.733 0 0 6.688 0 15c0 8.209 6.734 15 15 15 8.264 0 14.999-6.69 14.999-15 .102-8.311-6.633-15-15-15zm0 1.52c7.55 0 13.57 5.98 13.57 13.48 0 2.838-.918 5.472-2.449 7.702-2.142-2.534-5.306-4.155-8.673-4.56a5.843 5.843 0 0 0 3.47-5.372c0-3.243-2.653-5.879-5.919-5.879-3.163-.1-5.816 2.534-5.816 5.778 0 2.432 1.53 4.56 3.776 5.473-3.266.71-6.225 2.634-8.265 5.37-1.94-2.33-3.163-5.269-3.163-8.614C1.53 7.499 7.55 1.52 14.999 1.52zm.101 15.506c-2.449 0-4.387-1.925-4.387-4.357 0-2.433 1.938-4.358 4.387-4.358 2.45 0 4.388 1.925 4.388 4.358-.102 2.432-2.04 4.357-4.388 4.357zM15 28.378c-3.57 0-6.938-1.42-9.285-3.75 1.837-2.736 4.694-4.56 7.959-5.169.306 0 .612 0 1.02-.101.51 0 1.02-.102 1.633 0 .204 0 .51.101.714.101 3.265.304 6.122 1.825 8.163 4.359-2.55 2.837-6.122 4.56-10.204 4.56z"/></svg></svg>