<svg width="21" height="21" xmlns="http://www.w3.org/2000/svg" xmlns:xlink="http://www.w3.org/1999/xlink" xmlns:svgjs="http://svgjs.com/svgjs" fill="#fff"><svg xmlns="http://www.w3.org/2000/svg" width="21" height="21" viewBox="1 0 20 20"><path paint-order="stroke fill markers" fill-rule="evenodd" d="M21 18.795l-5.693-5.721c2.596-3.212 2.397-7.83-.6-10.74-3.096-3.112-8.19-3.112-11.385 0-3.096 3.112-3.096 8.23 0 11.443 2.896 2.91 7.59 3.111 10.786.501L19.801 20 21 18.795zM9.114 14.48a6.568 6.568 0 0 1-4.594-1.907 6.566 6.566 0 0 1 0-9.335A6.397 6.397 0 0 1 9.114 1.33c1.798 0 3.396.703 4.595 1.907a6.753 6.753 0 0 1 0 9.335 6.567 6.567 0 0 1-4.595 1.907z"/></svg></svg>