<svg width="101" height="82" xmlns="http://www.w3.org/2000/svg" xmlns:xlink="http://www.w3.org/1999/xlink" xmlns:svgjs="http://svgjs.com/svgjs" viewBox="0.039 0 100.923 82" fill="#d13887"><svg xmlns="http://www.w3.org/2000/svg" width="101" height="82" viewBox="0.508 0.428 99.588 80.915"><path paint-order="stroke fill markers" fill-rule="evenodd" d="M100.096 10.007c-3.704 1.625-7.65 2.702-11.764 3.225 4.232-2.528 7.463-6.499 8.981-11.285C93.367 4.3 89.01 5.962 84.367 6.889A20.458 20.458 0 0 0 69.454.428C58.15.428 49.05 9.603 49.05 20.85c0 1.618.137 3.175.473 4.656C32.55 24.678 17.53 16.543 7.442 4.15 5.68 7.207 4.647 10.704 4.647 14.47c0 7.07 3.641 13.339 9.069 16.967-3.28-.062-6.499-1.014-9.225-2.514v.224c0 9.921 7.077 18.162 16.358 20.06-1.662.455-3.474.673-5.353.673-1.307 0-2.627-.074-3.865-.348 2.645 8.084 10.151 14.03 19.077 14.222A41.023 41.023 0 0 1 5.394 72.46c-1.675 0-3.28-.074-4.886-.28 9.044 5.833 19.762 9.162 31.32 9.162 37.57 0 58.11-31.12 58.11-58.096 0-.903-.031-1.775-.075-2.64 4.052-2.875 7.457-6.467 10.233-10.6z"/></svg></svg>