<svg width="82" height="82" xmlns="http://www.w3.org/2000/svg" xmlns:xlink="http://www.w3.org/1999/xlink" xmlns:svgjs="http://svgjs.com/svgjs" viewBox="289 12098 82 82"><svg width="82" height="82" xmlns="http://www.w3.org/2000/svg" xmlns:xlink="http://www.w3.org/1999/xlink" xmlns:svgjs="http://svgjs.com/svgjs" fill="#d13887" x="289" y="12098"><svg xmlns="http://www.w3.org/2000/svg" xmlns:xlink="http://www.w3.org/1999/xlink" width="82" height="82" viewBox="0.524 0.428 80.915 80.915"><path paint-order="stroke fill markers" fill-rule="evenodd" d="M56.153.428H25.81C11.847.428.524 11.751.524 25.714v30.343c0 13.963 11.323 25.286 25.286 25.286h30.343c13.963 0 25.286-11.323 25.286-25.286V25.714C81.44 11.751 70.116.428 56.153.428zm17.7 55.63c0 9.76-7.94 17.7-17.7 17.7H25.81c-9.76 0-17.7-7.94-17.7-17.7V25.713c0-9.76 7.94-17.7 17.7-17.7h30.343c9.76 0 17.7 7.94 17.7 17.7v30.343z"/></svg></svg><svg width="42" height="42" xmlns="http://www.w3.org/2000/svg" xmlns:xlink="http://www.w3.org/1999/xlink" xmlns:svgjs="http://svgjs.com/svgjs" fill="#d13887" x="309" y="12118"><svg xmlns="http://www.w3.org/2000/svg" xmlns:xlink="http://www.w3.org/1999/xlink" width="42" height="42" viewBox="0.753 0.657 40.458 40.457"><path paint-order="stroke fill markers" fill-rule="evenodd" d="M20.982.657C9.81.657.752 9.715.752 20.887c0 11.17 9.058 20.228 20.23 20.228 11.17 0 20.228-9.058 20.228-20.229S32.153.657 20.982.657zm0 32.871c-6.97 0-12.644-5.673-12.644-12.642 0-6.974 5.675-12.643 12.644-12.643 6.968 0 12.643 5.67 12.643 12.643 0 6.969-5.675 12.642-12.643 12.642z"/></svg></svg><svg width="6" height="6" xmlns="http://www.w3.org/2000/svg" xmlns:xlink="http://www.w3.org/1999/xlink" xmlns:svgjs="http://svgjs.com/svgjs" fill="#d13887" x="349" y="12114"><svg xmlns="http://www.w3.org/2000/svg" width="6" height="6" viewBox="0.035 0.444 5.391 5.391"><path paint-order="stroke fill markers" fill-rule="evenodd" d="M2.73 5.835a2.694 2.694 0 1 0 0-5.39 2.696 2.696 0 0 0 0 5.39z"/></svg></svg></svg>