<svg width="81" height="82" xmlns="http://www.w3.org/2000/svg" xmlns:xlink="http://www.w3.org/1999/xlink" xmlns:svgjs="http://svgjs.com/svgjs" viewBox="0 0.629 81 80.742" fill="#d13887"><svg xmlns="http://www.w3.org/2000/svg" width="81" height="82" viewBox="0 0.41 80.922 80.664"><path paint-order="stroke fill markers" fill-rule="evenodd" d="M42.047.438C19.247-.395.895 17.65.032 39.173-.836 61.1 16.248 81.163 40.48 81.074c23.866-.013 39.65-18.928 40.41-38.597C81.786 19.451 63.47 1.221 42.046.438zm6.376 76.711c-1.116.245-1.27-.043-1.31-1.045-.233-5.677 1.996-10.544 4.943-15.158 2.87-4.5 6.49-8.376 10.315-12.073 1.284-1.24 2.558-2.49 3.801-3.764.29-.29.901-.497.551-1.129-.58-.36-.87.225-1.233.437-5.287 3.068-10.85 5.25-17.067 5.26a11.13 11.13 0 0 1-6.524-2.068c.148-.34.434-.251.602-.201 7 2.178 13.612.642 20.105-2.077 1.59-.67 3.106-1.506 4.655-2.269.047-.188.178-.202.333-.168 3.71-2.454 3.996-8.214.578-11.293-2.396-2.16-5.33-3.22-8.338-4.157a219.198 219.198 0 0 1-5.751-1.926c-1.533-.538-2.837-1.183-3.788-2.77-1.328-2.208-3.828-2.897-6.218-2.608-2.662.353-5.213.192-7.858-.043-5.263-.471-9.932 1.512-14.334 4.144-4.054 2.423-6.356 6.066-7.24 10.67-.474 2.471-.632 4.968-.833 7.466-.532 6.554-1.321 13.047-4.084 19.284A35.71 35.71 0 0 1 4.31 49.53C-.762 28.61 13.24 7.574 34.515 4.139 55.135.81 74.565 15.26 77.301 35.96a37.188 37.188 0 0 1-6.42 26.219A37.218 37.218 0 0 1 48.42 77.15h.003zm-13.32-38.224a7.326 7.326 0 0 1-7.172-7.24 7.225 7.225 0 0 1 4.484-6.695 7.216 7.216 0 0 1 4.19-.4 7.229 7.229 0 0 1 3.708 2 7.235 7.235 0 0 1-1.17 11.145 7.221 7.221 0 0 1-4.04 1.19zm24.374-.067c0-1.016.659-1.604 1.67-1.543a1.438 1.438 0 0 1 1.391 1.012c.062.194.082.403.058.604-.054.935-.642 1.45-1.62 1.503-.92-.12-1.512-.642-1.505-1.583l.006.007z"/></svg></svg>