<svg width="80" height="82" xmlns="http://www.w3.org/2000/svg" xmlns:xlink="http://www.w3.org/1999/xlink" xmlns:svgjs="http://svgjs.com/svgjs" viewBox="0 0.203 80 81.594" fill="#d13887"><svg xmlns="http://www.w3.org/2000/svg" width="80" height="82" viewBox="0.437 0.41 79.089 80.665"><path paint-order="stroke fill markers" fill-rule="evenodd" d="M15.793 62.78c5.539 6.201 12.267 9.943 20.458 10.82 9.407 1.004 17.732-1.502 24.824-7.845.272-.235.558-.45.854-.656 1.875-1.377 3.865-1.253 5.186.32 1.32 1.573 1.035 3.59-.602 5.186a36.303 36.303 0 0 1-13.269 8.174C28.867 87.155 5.29 71.63 1.126 48.271-2.733 26.815 9.968 6.811 30.54 1.581c21.698-5.536 44.375 9.175 48.125 31.26.817 4.756 1.436 9.519 0 14.268-2.033 6.759-8.19 10.731-14.368 9.336-4.89-1.112-8.526-5.572-8.85-11.148-.17-3.045 0-6.104 0-9.165l-.631-.129c-.403.626-.81 1.234-1.2 1.876-2.83 4.474-5.545 9.035-8.409 13.511a18.355 18.355 0 0 1-3.593 4.232c-2.786 2.295-6.463 1.435-7.744-1.97a24.997 24.997 0 0 1-1.142-7.138c-.192-3.34-.05-6.696-.508-10.187L15.793 62.78zM39.87 45.542l.45.138c2.581-4.205 5.072-8.463 7.774-12.58 1.31-2.12 2.9-4.053 4.732-5.744 3.16-2.739 7.183-1.573 8.692 2.34.48 1.343.746 2.755.776 4.18.114 2.938 0 5.892.064 8.83a12.96 12.96 0 0 0 .605 3.791c1.062 3.096 4.416 4.093 6.651 1.724a10.323 10.323 0 0 0 2.514-5.451 29.658 29.658 0 0 0-.373-7.902C69.034 16.517 50.061 3.98 32.184 8.615A33.156 33.156 0 0 0 7.656 44.208a30.193 30.193 0 0 0 3.69 11.921c.525-.776.941-1.334 1.308-1.932 5.633-9.072 11.235-18.156 16.885-27.23a14.172 14.172 0 0 1 2.565-3.147 4.222 4.222 0 0 1 1.757-1.018 4.143 4.143 0 0 1 2.027-.074 4.178 4.178 0 0 1 3.018 2.531c.592 1.455.904 3.01.921 4.58.088 5.25.044 10.48.044 15.71v-.007z"/></svg></svg>