<svg width="97" height="78" xmlns="http://www.w3.org/2000/svg" xmlns:xlink="http://www.w3.org/1999/xlink" xmlns:svgjs="http://svgjs.com/svgjs" viewBox="0 0.603 97 76.793" fill="#d13887"><svg xmlns="http://www.w3.org/2000/svg" width="97" height="78" viewBox="0.139 0.487 96.74 76.587"><path paint-order="stroke fill markers" fill-rule="evenodd" d="M89.161 9.49l7.718-7.386V.487H70.14L51.083 47.923 29.4.487H1.36v1.617l9.018 10.856a3.795 3.795 0 0 1 1.222 3.157v42.659c.278 1.536-.224 3.113-1.303 4.232L.139 75.318v1.597H28.94v-1.618L18.782 63.008a5.023 5.023 0 0 1-1.4-4.232v-36.9l25.283 55.056h2.939L67.34 21.876v43.86c0 1.157 0 1.396-.756 2.152l-7.82 7.566v1.62H96.7v-1.616l-7.537-7.38a2.239 2.239 0 0 1-.862-2.152V11.642a2.228 2.228 0 0 1 .86-2.152z"/></svg></svg>